# ProBuilder 5.0.4
# https://unity3d.com/unity/features/worldbuilding/probuilder
# 4/9/2022 9:58:38 p. m.

mtllib ./FloorBase1.mtl
o FloorBase1

g FloorBase1
v -1.5 -0.05 1.5
v 1.5 -0.05 1.5
v -1.5 0.05000001 1.5
v 1.5 0.05000001 1.5
v 1.5 -0.05 -1.5
v 1.5 0.05000001 -1.5
v -1.5 -0.05 -1.5
v -1.5 0.05000001 -1.5

vt 1.5 -0.05
vt -1.5 -0.05
vt 1.5 0.05000001
vt -1.5 0.05000001
vt -0.2499999 1.25
vt 1.25 1.25
vt -0.2499999 -0.25
vt 1.25 -0.25
vt 0.99995 5.00083E-05
vt 5.00083E-05 5.00083E-05
vt 0.99995 0.99995
vt 5.00083E-05 0.99995

vn 0 0 1
vn 1 0 0
vn 0 0 -1
vn -1 0 0
vn 0 1 0
vn 0 -1 0

usemtl Dark
f 1/1/1 2/2/1 4/4/1 3/3/1
f 2/1/2 5/2/2 6/4/2 4/3/2
f 5/1/3 7/2/3 8/4/3 6/3/3
f 7/1/4 1/2/4 3/4/4 8/3/4

usemtl Tiles_13
f 3/5/5 4/6/5 6/8/5 8/7/5

usemtl Ceiling_White
f 7/9/6 5/10/6 2/12/6 1/11/6

