# ProBuilder 5.0.4
# https://unity3d.com/unity/features/worldbuilding/probuilder
# 4/9/2022 10:07:10 p. m.

mtllib ./Wall1.mtl
o Wall1

g Wall1
v -1.5 -1.5 -0.05000019
v 1.5 -1.5 -0.05000019
v -1.5 -1.5 0.04999983
v 1.5 -1.5 0.04999983
v 1.5 1.5 -0.04999971
v 1.5 1.5 0.05000031
v -1.5 1.5 -0.04999971
v -1.5 1.5 0.05000031

vt 1.5 -0.05
vt -1.5 -0.05
vt 1.5 0.05000001
vt -1.5 0.05000001
vt 0.1250001 0.875
vt 0.8750001 0.875
vt 0.1250001 0.125
vt 0.8750001 0.125
vt 0.6875 0.3125
vt 0.3125 0.3125
vt 0.6875 0.6875
vt 0.3125 0.6875

vn 0 -1 0
vn 1 0 0
vn 0 1 0
vn -1 0 0
vn 0 -1.589457E-07 1
vn 0 1.589457E-07 -1

usemtl Dark
f 1/1/1 2/2/1 4/4/1 3/3/1
f 2/1/2 5/2/2 6/4/2 4/3/2
f 5/1/3 7/2/3 8/4/3 6/3/3
f 7/1/4 1/2/4 3/4/4 8/3/4

usemtl Wall_2
f 3/5/5 4/6/5 6/8/5 8/7/5
f 7/9/6 5/10/6 2/12/6 1/11/6

