# ProBuilder 5.0.4
# https://unity3d.com/unity/features/worldbuilding/probuilder
# 20/9/2022 11:17:35 p. m.

mtllib ./Wall_White.mtl
o Wall_White

g Wall_White
v 1.5 -1.728535E-07 -0.05000019
v 1.5 -1.847744E-07 0.04999984
v -1.5 -1.847744E-07 0.04999984
v -1.5 -1.728535E-07 -0.05000019
v -1.5 3 0.05000019
v -1.5 3 -0.04999983
v 1.5 3 0.05000019
v 1.5 3 -0.04999983

vt 1.5 -0.05
vt 1.5 0.05000001
vt -1.5 0.05000001
vt -1.5 -0.05
vt 0.375 0.375
vt 0.375 -0.375
vt -0.375 -0.375
vt -0.375 0.375

vn 0 -1 -1.192093E-07
vn -1 0 0
vn 0 1 1.192093E-07
vn 1 0 0
vn 0 -1.192093E-07 1
vn 0 1.192093E-07 -1

usemtl Dark
f 1/1/1 2/2/1 3/3/1 4/4/1
f 4/1/2 3/2/2 5/3/2 6/4/2
f 6/1/3 5/2/3 7/3/3 8/4/3
f 8/1/4 7/2/4 2/3/4 1/4/4

usemtl Wall_2
f 2/5/5 7/6/5 5/7/5 3/8/5
f 8/7/6 1/8/6 4/5/6 6/6/6

