# ProBuilder 4.5.2
# https://unity3d.com/unity/features/worldbuilding/probuilder
# 1/4/2022 11:07:13 a. m.

mtllib ./Cloth.mtl
o Cloth

g Cube
v 0 0 0
v -0.0375 0 0
v -0.0375 0.0375 0
v 0 0.0375 0
v -0.075 0 0
v -0.075 0.0375 0
v -0.075 0.075 0
v -0.0375 0.075 0
v 0 0.075 0
v -0.1125 0 0
v -0.1125 0.0375 0
v -0.15 0 0
v -0.15 0.0375 0
v -0.15 0.075 0
v -0.1125 0.075 0
v -0.1125 0.1125 0
v -0.075 0.1125 0
v -0.15 0.1125 0
v -0.15 0.15 0
v -0.1125 0.15 0
v -0.075 0.15 0
v -0.0375 0.1125 0
v 0 0.1125 0
v -0.0375 0.15 0
v 0 0.15 0
v -0.1875 0.0375 0
v -0.1875 0.075 0
v -0.1875 0 0
v -0.225 0 0
v -0.225 0.0375 0
v -0.225 0.075 0
v -0.2625 0 0
v -0.2625 0.0375 0
v -0.3 0 0
v -0.3 0.0375 0
v -0.3 0.075 0
v -0.2625 0.075 0
v -0.225 0.15 0
v -0.225 0.1125 0
v -0.2625 0.1125 0
v -0.2625 0.15 0
v -0.3 0.1125 0
v -0.3 0.15 0
v -0.1875 0.1125 0
v -0.1875 0.15 0
v -0.15 0.225 0
v -0.15 0.1875 0
v -0.1875 0.1875 0
v -0.1875 0.225 0
v -0.225 0.1875 0
v -0.225 0.225 0
v -0.2625 0.1875 0
v -0.3 0.1875 0
v -0.3 0.225 0
v -0.2625 0.225 0
v -0.225 0.3 0
v -0.225 0.2625 0
v -0.2625 0.2625 0
v -0.2625 0.3 0
v -0.3 0.2625 0
v -0.3 0.3 0
v -0.15 0.3 0
v -0.15 0.2625 0
v -0.1875 0.2625 0
v -0.1875 0.3 0
v -0.0375 0.1875 0
v 0 0.1875 0
v -0.075 0.1875 0
v -0.075 0.225 0
v -0.0375 0.225 0
v 0 0.225 0
v -0.1125 0.1875 0
v -0.1125 0.225 0
v -0.1125 0.2625 0
v -0.075 0.2625 0
v -0.1125 0.3 0
v -0.075 0.3 0
v -0.0375 0.2625 0
v 0 0.2625 0
v -0.0375 0.3 0
v 0 0.3 0
v -0.3 0 -0.002
v -0.3 0.0375 -0.002
v -0.3 0.075 -0.002
v -0.3 0.1125 -0.002
v -0.3 0.15 -0.002
v -0.3 0.1875 -0.002
v -0.3 0.225 -0.002
v -0.3 0.2625 -0.002
v -0.3 0.3 -0.002
v -0.15 0 -0.002
v -0.15 0.0375 -0.002
v -0.1875 0.0375 -0.002
v -0.1875 0 -0.002
v -0.15 0.075 -0.002
v -0.1875 0.075 -0.002
v -0.225 0.075 -0.002
v -0.225 0.0375 -0.002
v -0.225 0 -0.002
v -0.15 0.1125 -0.002
v -0.1875 0.1125 -0.002
v -0.15 0.15 -0.002
v -0.1875 0.15 -0.002
v -0.225 0.15 -0.002
v -0.225 0.1125 -0.002
v -0.2625 0.1125 -0.002
v -0.2625 0.075 -0.002
v -0.2625 0.15 -0.002
v -0.2625 0.0375 -0.002
v -0.2625 0 -0.002
v 0 0 -0.002
v 0 0.0375 -0.002
v -0.0375 0.0375 -0.002
v -0.0375 0 -0.002
v 0 0.075 -0.002
v -0.0375 0.075 -0.002
v -0.075 0.075 -0.002
v -0.075 0.0375 -0.002
v -0.075 0 -0.002
v 0 0.1125 -0.002
v -0.0375 0.1125 -0.002
v 0 0.15 -0.002
v -0.0375 0.15 -0.002
v -0.075 0.15 -0.002
v -0.075 0.1125 -0.002
v -0.1125 0.1125 -0.002
v -0.1125 0.075 -0.002
v -0.1125 0.15 -0.002
v -0.1125 0.0375 -0.002
v -0.1125 0 -0.002
v 0 0.1875 -0.002
v -0.0375 0.1875 -0.002
v 0 0.225 -0.002
v -0.0375 0.225 -0.002
v -0.075 0.225 -0.002
v -0.075 0.1875 -0.002
v 0 0.2625 -0.002
v -0.0375 0.2625 -0.002
v 0 0.3 -0.002
v -0.0375 0.3 -0.002
v -0.075 0.3 -0.002
v -0.075 0.2625 -0.002
v -0.1125 0.3 -0.002
v -0.1125 0.2625 -0.002
v -0.15 0.3 -0.002
v -0.15 0.2625 -0.002
v -0.15 0.225 -0.002
v -0.1125 0.225 -0.002
v -0.15 0.1875 -0.002
v -0.1125 0.1875 -0.002
v -0.1875 0.1875 -0.002
v -0.1875 0.225 -0.002
v -0.225 0.225 -0.002
v -0.225 0.1875 -0.002
v -0.1875 0.2625 -0.002
v -0.1875 0.3 -0.002
v -0.225 0.3 -0.002
v -0.225 0.2625 -0.002
v -0.2625 0.3 -0.002
v -0.2625 0.2625 -0.002
v -0.2625 0.225 -0.002
v -0.2625 0.1875 -0.002

vt 0 0
vt -0.0375 0
vt -0.0375 0.0375
vt 0 0.0375
vt -0.075 0
vt -0.075 0.0375
vt -0.075 0.075
vt -0.0375 0.075
vt 0 0.075
vt -0.1125 0
vt -0.1125 0.0375
vt -0.15 0
vt -0.15 0.0375
vt -0.15 0.075
vt -0.1125 0.075
vt -0.1125 0.1125
vt -0.075 0.1125
vt -0.15 0.1125
vt -0.15 0.15
vt -0.1125 0.15
vt -0.075 0.15
vt -0.0375 0.1125
vt 0 0.1125
vt -0.0375 0.15
vt 0 0.15
vt -0.1875 0.0375
vt -0.1875 0.075
vt -0.1875 0
vt -0.225 0
vt -0.225 0.0375
vt -0.225 0.075
vt -0.2625 0
vt -0.2625 0.0375
vt -0.3 0
vt -0.3 0.0375
vt -0.3 0.075
vt -0.2625 0.075
vt -0.225 0.15
vt -0.225 0.1125
vt -0.2625 0.1125
vt -0.2625 0.15
vt -0.3 0.1125
vt -0.3 0.15
vt -0.1875 0.1125
vt -0.1875 0.15
vt -0.15 0.225
vt -0.15 0.1875
vt -0.1875 0.1875
vt -0.1875 0.225
vt -0.225 0.1875
vt -0.225 0.225
vt -0.2625 0.1875
vt -0.3 0.1875
vt -0.3 0.225
vt -0.2625 0.225
vt -0.225 0.3
vt -0.225 0.2625
vt -0.2625 0.2625
vt -0.2625 0.3
vt -0.3 0.2625
vt -0.3 0.3
vt -0.15 0.3
vt -0.15 0.2625
vt -0.1875 0.2625
vt -0.1875 0.3
vt -0.0375 0.1875
vt 0 0.1875
vt -0.075 0.1875
vt -0.075 0.225
vt -0.0375 0.225
vt 0 0.225
vt -0.1125 0.1875
vt -0.1125 0.225
vt -0.1125 0.2625
vt -0.075 0.2625
vt -0.1125 0.3
vt -0.075 0.3
vt -0.0375 0.2625
vt 0 0.2625
vt -0.0375 0.3
vt 0 0.3
vt -0.002 3.157967E-15
vt -0.002 0.0375
vt -0.002 0.075
vt -0.002 0.1125
vt -0.002 0.15
vt -0.002 0.1875
vt -0.002 0.225
vt -0.002 0.2625
vt -0.002 0.3
vt 0.15 0
vt 0.15 0.0375
vt 0.1875 0.0375
vt 0.1875 0
vt 0.15 0.075
vt 0.1875 0.075
vt 0.225 0.075
vt 0.225 0.0375
vt 0.225 0
vt 0.15 0.1125
vt 0.1875 0.1125
vt 0.15 0.15
vt 0.1875 0.15
vt 0.225 0.15
vt 0.225 0.1125
vt 0.2625 0.1125
vt 0.2625 0.075
vt 0.2625 0.15
vt 0.3 0.15
vt 0.3 0.1125
vt 0.3 0.075
vt 0.2625 0.0375
vt 0.2625 0
vt 0.3 0.0375
vt 0.3 0
vt 0.0375 0.0375
vt 0.0375 0
vt 0.0375 0.075
vt 0.075 0.075
vt 0.075 0.0375
vt 0.075 0
vt 0.0375 0.1125
vt 0.0375 0.15
vt 0.075 0.15
vt 0.075 0.1125
vt 0.1125 0.1125
vt 0.1125 0.075
vt 0.1125 0.15
vt 0.1125 0.0375
vt 0.1125 0
vt 0.0375 0.1875
vt 0.0375 0.225
vt 0.075 0.225
vt 0.075 0.1875
vt 0.0375 0.2625
vt 0.0375 0.3
vt 0.075 0.3
vt 0.075 0.2625
vt 0.1125 0.3
vt 0.1125 0.2625
vt 0.15 0.3
vt 0.15 0.2625
vt 0.15 0.225
vt 0.1125 0.225
vt 0.15 0.1875
vt 0.1125 0.1875
vt 0.1875 0.1875
vt 0.1875 0.225
vt 0.225 0.225
vt 0.225 0.1875
vt 0.1875 0.2625
vt 0.1875 0.3
vt 0.225 0.3
vt 0.225 0.2625
vt 0.2625 0.3
vt 0.2625 0.2625
vt 0.3 0.3
vt 0.3 0.2625
vt 0.3 0.225
vt 0.2625 0.225
vt 0.3 0.1875
vt 0.2625 0.1875
vt 0.002 0.3
vt 0.002 0.2625
vt 0.002 0.225
vt 0.002 0.1875
vt 0.002 0.15
vt 0.002 0.1125
vt 0.002 0.075
vt 0.002 0.0375
vt 0.002 0
vt 0.075 -0.002
vt 0.0375 -0.002
vt 1.618458E-14 -0.002
vt 0.3 -0.002
vt 0.2625 -0.002
vt 0.225 -0.002
vt 0.1875 -0.002
vt 0.15 -0.002
vt 0.1125 -0.002
vt -0.0375 -0.002
vt -0.075 -0.002
vt -0.1125 -0.002
vt -0.15 -0.002
vt -0.1875 -0.002
vt -0.225 -0.002
vt -0.2625 -0.002
vt -0.3 -0.002

vn 0 0 1
vn -1 0 0
vn 0 0 -1
vn 1 0 0
vn 0 1 0
vn 0 -1 0

usemtl Cloth
f 35/4/2 82/82/2 34/1/2
f 35/4/2 83/83/2 82/82/2
f 36/9/2 83/83/2 35/4/2
f 36/9/2 84/84/2 83/83/2
f 42/23/2 84/84/2 36/9/2
f 42/23/2 85/85/2 84/84/2
f 43/25/2 85/85/2 42/23/2
f 43/25/2 86/86/2 85/85/2
f 53/67/2 86/86/2 43/25/2
f 53/67/2 87/87/2 86/86/2
f 54/71/2 87/87/2 53/67/2
f 54/71/2 88/88/2 87/87/2
f 60/79/2 88/88/2 54/71/2
f 60/79/2 89/89/2 88/88/2
f 61/81/2 89/89/2 60/79/2
f 61/81/2 90/90/2 89/89/2
f 137/164/4 139/163/4 81/81/4
f 79/79/4 137/164/4 81/81/4
f 133/165/4 137/164/4 79/79/4
f 71/71/4 133/165/4 79/79/4
f 131/166/4 133/165/4 71/71/4
f 67/67/4 131/166/4 71/71/4
f 122/167/4 131/166/4 67/67/4
f 25/25/4 122/167/4 67/67/4
f 25/25/4 23/23/4 122/167/4
f 23/23/4 120/168/4 122/167/4
f 23/23/4 9/9/4 120/168/4
f 9/9/4 115/169/4 120/168/4
f 9/9/4 4/4/4 115/169/4
f 4/4/4 112/170/4 115/169/4
f 4/4/4 1/1/4 112/170/4
f 1/1/4 111/171/4 112/170/4
f 81/1/5 139/174/5 140/173/5
f 59/113/5 90/175/5 61/115/5
f 59/113/5 159/176/5 90/175/5
f 56/99/5 159/176/5 59/113/5
f 56/99/5 157/177/5 159/176/5
f 65/94/5 157/177/5 56/99/5
f 65/94/5 156/178/5 157/177/5
f 62/91/5 156/178/5 65/94/5
f 62/91/5 145/179/5 156/178/5
f 76/130/5 145/179/5 62/91/5
f 76/130/5 143/180/5 145/179/5
f 77/121/5 143/180/5 76/130/5
f 77/121/5 141/172/5 143/180/5
f 80/117/5 141/172/5 77/121/5
f 80/117/5 140/173/5 141/172/5
f 81/1/5 140/173/5 80/117/5
f 2/2/6 114/181/6 1/1/6
f 119/182/6 114/181/6 2/2/6
f 5/5/6 119/182/6 2/2/6
f 130/183/6 119/182/6 5/5/6
f 10/10/6 130/183/6 5/5/6
f 91/184/6 130/183/6 10/10/6
f 12/12/6 91/184/6 10/10/6
f 91/184/6 12/12/6 28/28/6
f 94/185/6 91/184/6 28/28/6
f 99/186/6 94/185/6 28/28/6
f 29/29/6 99/186/6 28/28/6
f 110/187/6 99/186/6 29/29/6
f 32/32/6 110/187/6 29/29/6
f 110/187/6 32/32/6 34/34/6
f 82/188/6 110/187/6 34/34/6
f 114/181/6 111/174/6 1/1/6
f 3/3/1 2/2/1 1/1/1
f 1/1/1 4/4/1 3/3/1
f 6/6/1 5/5/1 2/2/1
f 2/2/1 3/3/1 6/6/1
f 7/7/1 6/6/1 3/3/1
f 3/3/1 8/8/1 7/7/1
f 8/8/1 3/3/1 4/4/1
f 4/4/1 9/9/1 8/8/1
f 10/10/1 5/5/1 6/6/1
f 6/6/1 11/11/1 10/10/1
f 13/13/1 12/12/1 10/10/1
f 10/10/1 11/11/1 13/13/1
f 13/13/1 11/11/1 15/15/1
f 15/15/1 14/14/1 13/13/1
f 11/11/1 6/6/1 7/7/1
f 7/7/1 15/15/1 11/11/1
f 15/15/1 7/7/1 17/17/1
f 17/17/1 16/16/1 15/15/1
f 18/18/1 14/14/1 15/15/1
f 15/15/1 16/16/1 18/18/1
f 18/18/1 16/16/1 20/20/1
f 20/20/1 19/19/1 18/18/1
f 16/16/1 17/17/1 21/21/1
f 21/21/1 20/20/1 16/16/1
f 22/22/1 8/8/1 9/9/1
f 9/9/1 23/23/1 22/22/1
f 17/17/1 7/7/1 8/8/1
f 8/8/1 22/22/1 17/17/1
f 21/21/1 17/17/1 22/22/1
f 22/22/1 24/24/1 21/21/1
f 24/24/1 22/22/1 23/23/1
f 23/23/1 25/25/1 24/24/1
f 27/27/1 26/26/1 13/13/1
f 13/13/1 14/14/1 27/27/1
f 26/26/1 28/28/1 12/12/1
f 12/12/1 13/13/1 26/26/1
f 29/29/1 28/28/1 26/26/1
f 26/26/1 30/30/1 29/29/1
f 31/31/1 30/30/1 26/26/1
f 26/26/1 27/27/1 31/31/1
f 33/33/1 32/32/1 29/29/1
f 29/29/1 30/30/1 33/33/1
f 35/35/1 34/34/1 32/32/1
f 32/32/1 33/33/1 35/35/1
f 36/36/1 35/35/1 33/33/1
f 33/33/1 37/37/1 36/36/1
f 33/33/1 30/30/1 31/31/1
f 31/31/1 37/37/1 33/33/1
f 41/41/1 40/40/1 39/39/1
f 39/39/1 38/38/1 41/41/1
f 40/40/1 37/37/1 31/31/1
f 31/31/1 39/39/1 40/40/1
f 42/42/1 36/36/1 37/37/1
f 37/37/1 40/40/1 42/42/1
f 42/42/1 40/40/1 41/41/1
f 41/41/1 43/43/1 42/42/1
f 45/45/1 44/44/1 18/18/1
f 18/18/1 19/19/1 45/45/1
f 44/44/1 27/27/1 14/14/1
f 14/14/1 18/18/1 44/44/1
f 39/39/1 31/31/1 27/27/1
f 27/27/1 44/44/1 39/39/1
f 39/39/1 44/44/1 45/45/1
f 45/45/1 38/38/1 39/39/1
f 49/49/1 48/48/1 47/47/1
f 47/47/1 46/46/1 49/49/1
f 48/48/1 45/45/1 19/19/1
f 19/19/1 47/47/1 48/48/1
f 38/38/1 45/45/1 48/48/1
f 48/48/1 50/50/1 38/38/1
f 51/51/1 50/50/1 48/48/1
f 48/48/1 49/49/1 51/51/1
f 52/52/1 41/41/1 38/38/1
f 38/38/1 50/50/1 52/52/1
f 53/53/1 43/43/1 41/41/1
f 41/41/1 52/52/1 53/53/1
f 54/54/1 53/53/1 52/52/1
f 52/52/1 55/55/1 54/54/1
f 52/52/1 50/50/1 51/51/1
f 51/51/1 55/55/1 52/52/1
f 59/59/1 58/58/1 57/57/1
f 57/57/1 56/56/1 59/59/1
f 58/58/1 55/55/1 51/51/1
f 51/51/1 57/57/1 58/58/1
f 60/60/1 54/54/1 55/55/1
f 55/55/1 58/58/1 60/60/1
f 60/60/1 58/58/1 59/59/1
f 59/59/1 61/61/1 60/60/1
f 65/65/1 64/64/1 63/63/1
f 63/63/1 62/62/1 65/65/1
f 64/64/1 49/49/1 46/46/1
f 46/46/1 63/63/1 64/64/1
f 57/57/1 51/51/1 49/49/1
f 49/49/1 64/64/1 57/57/1
f 57/57/1 64/64/1 65/65/1
f 65/65/1 56/56/1 57/57/1
f 24/24/1 25/25/1 67/67/1
f 67/67/1 66/66/1 24/24/1
f 68/68/1 21/21/1 24/24/1
f 24/24/1 66/66/1 68/68/1
f 69/69/1 68/68/1 66/66/1
f 66/66/1 70/70/1 69/69/1
f 70/70/1 66/66/1 67/67/1
f 67/67/1 71/71/1 70/70/1
f 20/20/1 21/21/1 68/68/1
f 68/68/1 72/72/1 20/20/1
f 47/47/1 19/19/1 20/20/1
f 20/20/1 72/72/1 47/47/1
f 46/46/1 47/47/1 72/72/1
f 72/72/1 73/73/1 46/46/1
f 72/72/1 68/68/1 69/69/1
f 69/69/1 73/73/1 72/72/1
f 73/73/1 69/69/1 75/75/1
f 75/75/1 74/74/1 73/73/1
f 63/63/1 46/46/1 73/73/1
f 73/73/1 74/74/1 63/63/1
f 63/63/1 74/74/1 76/76/1
f 76/76/1 62/62/1 63/63/1
f 76/76/1 74/74/1 75/75/1
f 75/75/1 77/77/1 76/76/1
f 78/78/1 70/70/1 71/71/1
f 71/71/1 79/79/1 78/78/1
f 69/69/1 70/70/1 78/78/1
f 78/78/1 75/75/1 69/69/1
f 77/77/1 75/75/1 78/78/1
f 78/78/1 80/80/1 77/77/1
f 80/80/1 78/78/1 79/79/1
f 79/79/1 81/81/1 80/80/1
f 93/93/3 92/92/3 91/91/3
f 91/91/3 94/94/3 93/93/3
f 96/96/3 95/95/3 92/92/3
f 92/92/3 93/93/3 96/96/3
f 97/97/3 96/96/3 93/93/3
f 93/93/3 98/98/3 97/97/3
f 98/98/3 93/93/3 94/94/3
f 94/94/3 99/99/3 98/98/3
f 101/101/3 100/100/3 95/95/3
f 95/95/3 96/96/3 101/101/3
f 103/103/3 102/102/3 100/100/3
f 100/100/3 101/101/3 103/103/3
f 105/105/3 104/104/3 103/103/3
f 103/103/3 101/101/3 105/105/3
f 96/96/3 97/97/3 105/105/3
f 105/105/3 101/101/3 96/96/3
f 106/106/3 105/105/3 97/97/3
f 97/97/3 107/107/3 106/106/3
f 108/108/3 104/104/3 105/105/3
f 105/105/3 106/106/3 108/108/3
f 85/110/3 86/109/3 108/108/3
f 108/108/3 106/106/3 85/110/3
f 107/107/3 84/111/3 85/110/3
f 85/110/3 106/106/3 107/107/3
f 109/112/3 98/98/3 99/99/3
f 99/99/3 110/113/3 109/112/3
f 107/107/3 97/97/3 98/98/3
f 98/98/3 109/112/3 107/107/3
f 84/111/3 107/107/3 109/112/3
f 109/112/3 83/114/3 84/111/3
f 83/114/3 109/112/3 110/113/3
f 110/113/3 82/115/3 83/114/3
f 113/116/3 112/4/3 111/1/3
f 111/1/3 114/117/3 113/116/3
f 116/118/3 115/9/3 112/4/3
f 112/4/3 113/116/3 116/118/3
f 117/119/3 116/118/3 113/116/3
f 113/116/3 118/120/3 117/119/3
f 118/120/3 113/116/3 114/117/3
f 114/117/3 119/121/3 118/120/3
f 121/122/3 120/23/3 115/9/3
f 115/9/3 116/118/3 121/122/3
f 123/123/3 122/25/3 120/23/3
f 120/23/3 121/122/3 123/123/3
f 125/125/3 124/124/3 123/123/3
f 123/123/3 121/122/3 125/125/3
f 116/118/3 117/119/3 125/125/3
f 125/125/3 121/122/3 116/118/3
f 126/126/3 125/125/3 117/119/3
f 117/119/3 127/127/3 126/126/3
f 128/128/3 124/124/3 125/125/3
f 125/125/3 126/126/3 128/128/3
f 100/100/3 102/102/3 128/128/3
f 128/128/3 126/126/3 100/100/3
f 127/127/3 95/95/3 100/100/3
f 100/100/3 126/126/3 127/127/3
f 129/129/3 118/120/3 119/121/3
f 119/121/3 130/130/3 129/129/3
f 127/127/3 117/119/3 118/120/3
f 118/120/3 129/129/3 127/127/3
f 95/95/3 127/127/3 129/129/3
f 129/129/3 92/92/3 95/95/3
f 92/92/3 129/129/3 130/130/3
f 130/130/3 91/91/3 92/92/3
f 132/131/3 131/67/3 122/25/3
f 122/25/3 123/123/3 132/131/3
f 134/132/3 133/71/3 131/67/3
f 131/67/3 132/131/3 134/132/3
f 135/133/3 134/132/3 132/131/3
f 132/131/3 136/134/3 135/133/3
f 136/134/3 132/131/3 123/123/3
f 123/123/3 124/124/3 136/134/3
f 138/135/3 137/79/3 133/71/3
f 133/71/3 134/132/3 138/135/3
f 140/136/3 139/81/3 137/79/3
f 137/79/3 138/135/3 140/136/3
f 141/137/3 140/136/3 138/135/3
f 138/135/3 142/138/3 141/137/3
f 142/138/3 138/135/3 134/132/3
f 134/132/3 135/133/3 142/138/3
f 142/138/3 144/140/3 143/139/3
f 143/139/3 141/137/3 142/138/3
f 146/142/3 145/141/3 143/139/3
f 143/139/3 144/140/3 146/142/3
f 147/143/3 146/142/3 144/140/3
f 144/140/3 148/144/3 147/143/3
f 135/133/3 148/144/3 144/140/3
f 144/140/3 142/138/3 135/133/3
f 150/146/3 149/145/3 147/143/3
f 147/143/3 148/144/3 150/146/3
f 149/145/3 150/146/3 128/128/3
f 128/128/3 102/102/3 149/145/3
f 124/124/3 128/128/3 150/146/3
f 150/146/3 136/134/3 124/124/3
f 136/134/3 150/146/3 148/144/3
f 148/144/3 135/133/3 136/134/3
f 151/147/3 149/145/3 102/102/3
f 102/102/3 103/103/3 151/147/3
f 152/148/3 147/143/3 149/145/3
f 149/145/3 151/147/3 152/148/3
f 153/149/3 152/148/3 151/147/3
f 151/147/3 154/150/3 153/149/3
f 154/150/3 151/147/3 103/103/3
f 103/103/3 104/104/3 154/150/3
f 155/151/3 146/142/3 147/143/3
f 147/143/3 152/148/3 155/151/3
f 156/152/3 145/141/3 146/142/3
f 146/142/3 155/151/3 156/152/3
f 157/153/3 156/152/3 155/151/3
f 155/151/3 158/154/3 157/153/3
f 158/154/3 155/151/3 152/148/3
f 152/148/3 153/149/3 158/154/3
f 160/156/3 159/155/3 157/153/3
f 157/153/3 158/154/3 160/156/3
f 90/157/3 159/155/3 160/156/3
f 160/156/3 89/158/3 90/157/3
f 88/159/3 89/158/3 160/156/3
f 160/156/3 161/160/3 88/159/3
f 153/149/3 161/160/3 160/156/3
f 160/156/3 158/154/3 153/149/3
f 162/162/3 87/161/3 88/159/3
f 88/159/3 161/160/3 162/162/3
f 87/161/3 162/162/3 108/108/3
f 108/108/3 86/109/3 87/161/3
f 162/162/3 154/150/3 104/104/3
f 104/104/3 108/108/3 162/162/3
f 161/160/3 153/149/3 154/150/3
f 154/150/3 162/162/3 161/160/3

