# ProBuilder 4.5.2
# https://unity3d.com/unity/features/worldbuilding/probuilder
# 5/4/2022 2:50:46 p. m.

mtllib ./DoorWall2.mtl
o DoorWall2

g Separator door mid (3)
v -9.760261E-07 0 -3.159046E-06
v 4.544854E-07 2.995468 -3.159046E-06
v 0.09999847 2.995468 -3.159046E-06
v 0.09999847 0 -3.159046E-06
v -1.11997E-06 0 -0.5369323
v 1.117587E-07 2.995468 -0.4923548
v -7.674098E-07 0 -2.252987
v 6.631017E-07 2.995468 -2.252987
v -1.258379E-06 0 -1.697989
v -1.261889E-06 2.227633 -1.727438
v 1.117587E-07 2.995468 -1.745499
v -1.11681E-06 2.227633 -0.5104278
v 0.09999915 2.995468 -2.252987
v 0.09999915 0 -2.252987
v 0.09999773 0 -1.695761
v 0.09999736 0 -0.5280975
v 0.09999787 2.208259 -0.5281122
v 0.09999859 2.995468 -0.4923548
v 0.09999773 2.208259 -1.695776
v 0.09999859 2.995468 -1.745499

vt 1.583337 -2.475571
vt 1.58334 3.515365
vt 1.783336 3.515365
vt 1.783336 -2.475571
vt 2.759826 -2.475571
vt 1.685968 -2.475571
vt 1.775123 3.515365
vt -1.746141 -2.475571
vt -1.746141 3.515365
vt -0.6361454 -2.475571
vt -0.6950443 1.979695
vt -0.7311656 3.515365
vt 1.738977 1.979695
vt 2.759826 3.515365
vt 1.483339 3.515365
vt 1.683336 3.515365
vt 1.683338 -2.475571
vt 1.483339 -2.475571
vt 3.898364 -2.475571
vt 5.012816 -2.475571
vt 0.5068493 -2.475571
vt 0.5068493 3.515365
vt 1.563038 -2.475571
vt 1.563067 1.940947
vt 1.491553 3.515365
vt 3.898395 1.940947
vt 3.997841 3.515365
vt 5.012816 3.515365
vt 1.483339 -4.357316
vt 1.48334 -3.34234
vt 1.48334 -0.8360517
vt 1.483341 0.1486517
vt 1.683336 0.1486517
vt 1.683337 -0.8360517
vt 1.683337 -3.34234
vt 1.683336 -4.357316
vt 1.158703 -0.8797593
vt 1.36242 -0.9151282
vt 1.362419 -3.250456
vt 1.158702 -3.313781
vt 1.063285 2.384309
vt 1.273068 2.345558
vt 1.080933 -2.071311
vt 1.273077 -2.070609
vt 1.392124 2.324868
vt 1.39213 -2.09165
vt 1.585994 -2.09165
vt 1.595226 2.363616
vt -0.01296952 -2.252987
vt 0.0870304 -2.252987
vt 0.08702898 -1.695761
vt -0.01297001 -1.697989
vt 1.783336 -0.7093756
vt 1.583337 -0.7093756
vt 1.583337 -1.783234
vt 1.783334 -1.765564

vn 0 0 1
vn -1 4.423832E-07 4.820944E-07
vn 0 0 -1
vn 1 8.823651E-12 2.553878E-06
vn 0 1 0
vn -0.1902041 -0.9817446 2.212428E-08
vn -0.2996125 0.01261165 0.9539776
vn -0.1609449 0.00630928 0.9768647
vn -0.02227729 6.908158E-06 0.9997518
vn -0.1741454 -6.551701E-06 -0.98472
vn -0.04307234 0.005922257 -0.9903849
vn 0.08800074 0.01185106 -0.9960499
vn 0 -1 0

usemtl Dark
f 11/35/5 13/29/5 8/36/5
f 11/35/5 20/30/5 13/29/5
f 6/34/5 20/30/5 11/35/5
f 6/34/5 18/31/5 20/30/5
f 6/34/5 3/32/5 18/31/5
f 2/33/5 3/32/5 6/34/5
f 1/1/1 4/4/1 3/3/1
f 3/3/1 2/2/1 1/1/1
f 8/16/3 13/15/3 14/18/3
f 14/18/3 7/17/3 8/16/3
f 19/42/8 10/41/7 9/43/8
f 9/43/8 15/44/9 19/42/8
f 12/48/11 17/45/10 16/46/11
f 16/46/11 5/47/12 12/48/11
f 17/38/6 12/37/6 10/40/6
f 10/40/6 19/39/6 17/38/6
f 7/49/13 14/50/13 15/51/13
f 15/51/13 9/52/13 7/49/13
f 5/55/13 16/56/13 4/53/13
f 4/53/13 1/54/13 5/55/13

usemtl OfficeWallMaterial_Interior
f 20/27/4 19/26/4 13/28/4
f 15/19/4 14/20/4 13/28/4
f 19/26/4 15/19/4 13/28/4
f 3/22/4 4/21/4 16/23/4
f 3/22/4 16/23/4 17/24/4
f 3/22/4 17/24/4 18/25/4
f 8/9/2 7/8/2 11/12/2
f 11/12/2 7/8/2 9/10/2
f 11/12/2 9/10/2 10/11/2
f 5/6/2 1/5/2 6/7/2
f 12/13/2 5/6/2 6/7/2
f 6/7/2 1/5/2 2/14/2
f 20/27/4 18/25/4 17/24/4
f 17/24/4 19/26/4 20/27/4
f 11/12/2 10/11/2 12/13/2
f 12/13/2 6/7/2 11/12/2

