# ProBuilder 5.0.4
# https://unity3d.com/unity/features/worldbuilding/probuilder
# 15/8/2022 1:29:00 p. m.

mtllib ./Door.mtl
o Door

g Door
v 0.8501534 -1.352299 -0.06530765
v 0.8501534 0.5678039 -0.06530765
v -0.1359105 0.5678039 -0.06530765
v -0.1359105 -1.352299 -0.06530765
v 0.8501534 0.5678039 0.01505445
v -0.1359105 0.5678039 0.01505445
v 0.8501534 -1.352299 0.01505445
v -0.1359105 -1.352299 0.01505445

vt 0 0
vt 0 1
vt 1 1
vt 1 0

vn 0 0 -1
vn 0 1 0
vn 0 0 1
vn 0 -1 0
vn -1 0 0
vn 1 0 0

usemtl DoorGrainedWhite_1
f 4/4/1 3/3/1 2/2/1 1/1/1
f 3/4/2 6/3/2 5/2/2 2/1/2
f 6/4/3 8/3/3 7/2/3 5/1/3
f 8/4/4 4/3/4 1/2/4 7/1/4
f 8/4/5 6/3/5 3/2/5 4/1/5
f 1/4/6 2/3/6 5/2/6 7/1/6

