# ProBuilder 4.5.2
# https://unity3d.com/unity/features/worldbuilding/probuilder
# 1/4/2022 9:03:24 a. m.

mtllib ./Epinephrine.mtl
o Epinephrine

g Cylinder
v 95.32794 -3.408787 35.6515
v 95.32794 -3.000673 35.6515
v 95.33022 -3.408787 35.66298
v 95.33022 -3.000673 35.66298
v 95.33673 -3.408787 35.67271
v 95.33673 -3.000673 35.67271
v 95.34646 -3.408787 35.67922
v 95.34646 -3.000673 35.67922
v 95.35794 -3.408787 35.6815
v 95.35794 -3.000673 35.6815
v 95.36942 -3.408787 35.67922
v 95.36942 -3.000673 35.67922
v 95.37916 -3.408787 35.67271
v 95.37916 -3.000673 35.67271
v 95.38566 -3.408787 35.66298
v 95.38566 -3.000673 35.66298
v 95.38794 -3.408787 35.6515
v 95.38566 -3.408787 35.64002
v 95.38566 -3.000673 35.64002
v 95.37916 -3.408787 35.63029
v 95.37916 -3.000673 35.63029
v 95.36942 -3.408787 35.62378
v 95.36942 -3.000673 35.62378
v 95.35794 -3.408787 35.6215
v 95.35794 -3.000673 35.6215
v 95.34646 -3.408787 35.62378
v 95.34646 -3.000673 35.62378
v 95.33673 -3.408787 35.63029
v 95.33673 -3.000673 35.63029
v 95.33022 -3.408787 35.64002
v 95.33022 -3.000673 35.64002
v 95.33022 -2.908787 35.66298
v 95.33673 -2.908787 35.67271
v 95.34646 -2.908787 35.67922
v 95.35794 -2.908787 35.6815
v 95.36942 -2.908787 35.67922
v 95.37916 -2.908787 35.67271
v 95.38566 -2.908787 35.66298
v 95.38794 -3.000673 35.6515
v 95.38794 -2.908787 35.6515
v 95.38566 -2.908787 35.64002
v 95.37916 -2.908787 35.63029
v 95.36942 -2.908787 35.62378
v 95.35794 -2.908787 35.6215
v 95.34646 -2.908787 35.62378
v 95.33673 -2.908787 35.63029
v 95.33022 -2.908787 35.64002
v 95.32794 -2.908787 35.6515
v 95.35794 -3.408787 35.6515
v 95.35794 -2.908787 35.6515

vt 0.03 0.25
vt 0.7972538 0.25
vt 0.03 0.3342669
vt 0.7972538 0.3342796
vt 0.03 0.4057049
vt 0.7972538 0.4057073
vt 0.03 0.4534383
vt 0.7972538 0.4534471
vt 0.03 0.4702
vt 0.7972538 0.470191
vt 0.03 0.25
vt 0.03 0.1657331
vt 0.7972538 0.1657203
vt 0.03 0.09429511
vt 0.7972538 0.09429264
vt 0.03 0.04656173
vt 0.7972538 0.04655285
vt 0.03 0.0298
vt 0.7972538 0.02980892
vt 0.97 0.3342669
vt 0.97 0.4057049
vt 0.97 0.4534382
vt 0.97 0.4702
vt 0.97 0.2499999
vt 0.97 0.1657331
vt 0.97 0.09429508
vt 0.97 0.0465617
vt 0.97 0.02979997
vt 0.08715227 0.8100004
vt 0.1212906 0.2145672
vt 0.1062865 0.8061943
vt 0.08715227 0.7600003
vt 0.1225076 0.7953557
vt 0.1391339 0.2275736
vt 0.1510564 0.247039
vt 0.1333462 0.7791345
vt 0.155243 0.27
vt 0.1371523 0.7600003
vt 0.1510564 0.292961
vt 0.1333463 0.7408662
vt 0.1391339 0.3124264
vt 0.1225076 0.724645
vt 0.1212906 0.3254328
vt 0.1062864 0.7138064
vt 0.100243 0.33
vt 0.08715227 0.7100003
vt 0.07919543 0.3254328
vt 0.0680181 0.7138064
vt 0.06135215 0.3124264
vt 0.05179694 0.724645
vt 0.04942964 0.292961
vt 0.0409583 0.7408662
vt 0.04524302 0.27
vt 0.03715227 0.7600003
vt 0.0409583 0.7791345
vt 0.04942965 0.247039
vt 0.100243 0.27
vt 0.06135213 0.2275736
vt 0.05179693 0.7953557
vt 0.07919542 0.2145672
vt 0.0680181 0.8061943
vt 0.100243 0.21

vn -0.9808003 -2.217855E-06 -0.06495417
vn -0.9808155 3.815312E-06 2.483527E-08
vn -0.9310284 -4.653251E-06 0.3151745
vn -0.9060685 8.701727E-06 0.3753653
vn -0.7394291 -2.423227E-07 0.6476476
vn -0.6935318 5.517991E-07 0.6935733
vn -0.4354962 -2.792765E-06 0.881184
vn -0.3753404 4.791885E-06 0.9060851
vn -0.06495424 5.18522E-07 0.9808004
vn -9.934108E-09 -6.973346E-07 0.9808155
vn 0.3151744 -9.264575E-07 0.9310284
vn 0.37524 2.333368E-07 0.9061522
vn 0.6475223 -4.738492E-06 0.7395127
vn 0.6935318 8.292126E-06 0.6934903
vn 0.8812678 -3.176567E-06 0.435371
vn 0.9061689 7.511042E-06 0.3752151
vn 0.9808003 3.645015E-06 0.0649542
vn 0.9310285 9.131084E-07 -0.3151744
vn 0.9061689 -3.615658E-06 -0.3752151
vn 0.7395296 -4.462127E-06 -0.6474973
vn 0.6935318 7.541089E-06 -0.6934902
vn 0.435396 -3.6472E-06 -0.8812511
vn 0.37524 7.636595E-06 -0.9061522
vn 0.06495418 9.077658E-07 -0.9808003
vn -2.483527E-08 -1.758059E-06 -0.9808155
vn -0.3151745 -2.812094E-06 -0.9310284
vn -0.3753404 4.852021E-06 -0.9060851
vn -0.6476226 3.6587E-08 -0.7394457
vn -0.6935318 -1.971684E-07 -0.6935733
vn -0.8811674 -3.262325E-06 -0.4355211
vn -0.9060685 4.91968E-06 -0.3753653
vn -0.8811674 1.450125E-05 0.4355212
vn -0.6476226 -1.474891E-07 0.7394457
vn -0.3151745 1.249422E-05 0.9310285
vn 0.06495421 -4.033203E-06 0.9808004
vn 0.4353959 1.6209E-05 0.8812511
vn 0.7395294 1.982419E-05 0.6474974
vn 0.9310284 -4.056817E-06 0.3151745
vn 0.9808155 -6.272878E-06 -1.986822E-08
vn 0.9808004 -1.618804E-05 -0.06495427
vn 0.8812678 1.410634E-05 -0.4353709
vn 0.6475224 2.102729E-05 -0.7395127
vn 0.3151745 4.10815E-06 -0.9310284
vn -0.06495427 -2.300346E-06 -0.9808003
vn -0.4354962 1.239363E-05 -0.881184
vn -0.7394291 1.063159E-06 -0.6476476
vn -0.9310284 2.065775E-05 -0.3151744
vn -0.9808004 9.856594E-06 0.06495427
vn 0 -1 0
vn 0 1 0

usemtl Epinephrine_pen_Texture
f 46/58/50 50/57/50 45/56/50
f 47/60/50 50/57/50 46/58/50
f 48/62/50 50/57/50 47/60/50
f 32/30/50 50/57/50 48/62/50
f 33/34/50 50/57/50 32/30/50
f 34/35/50 50/57/50 33/34/50
f 35/37/50 50/57/50 34/35/50
f 36/39/50 50/57/50 35/37/50
f 37/41/50 50/57/50 36/39/50
f 38/43/50 50/57/50 37/41/50
f 40/45/50 50/57/50 38/43/50
f 41/47/50 50/57/50 40/45/50
f 42/49/50 50/57/50 41/47/50
f 43/51/50 50/57/50 42/49/50
f 44/53/50 50/57/50 43/51/50
f 45/56/50 50/57/50 44/53/50
f 3/31/49 49/32/49 5/33/49
f 1/29/49 49/32/49 3/31/49
f 30/61/49 49/32/49 1/29/49
f 28/59/49 49/32/49 30/61/49
f 26/55/49 49/32/49 28/59/49
f 24/54/49 49/32/49 26/55/49
f 22/52/49 49/32/49 24/54/49
f 20/50/49 49/32/49 22/52/49
f 18/48/49 49/32/49 20/50/49
f 17/46/49 49/32/49 18/48/49
f 15/44/49 49/32/49 17/46/49
f 13/42/49 49/32/49 15/44/49
f 11/40/49 49/32/49 13/42/49
f 9/38/49 49/32/49 11/40/49
f 7/36/49 49/32/49 9/38/49
f 5/33/49 49/32/49 7/36/49
f 20/14/20 19/13/19 18/12/18
f 20/14/20 21/15/21 19/13/19
f 22/16/22 21/15/21 20/14/20
f 22/16/22 23/17/23 21/15/21
f 24/18/24 23/17/23 22/16/22
f 24/18/24 25/19/25 23/17/23
f 26/16/26 25/19/25 24/18/24
f 26/16/26 27/17/27 25/19/25
f 28/14/28 27/17/27 26/16/26
f 28/14/28 29/15/29 27/17/27
f 30/12/30 29/15/29 28/14/28
f 30/12/30 31/13/31 29/15/29
f 19/13/19 40/24/40 39/2/39
f 19/13/19 41/25/41 40/24/40
f 21/15/21 41/25/41 19/13/19
f 21/15/21 42/26/42 41/25/41
f 23/17/23 42/26/42 21/15/21
f 23/17/23 43/27/43 42/26/42
f 25/19/25 43/27/43 23/17/23
f 25/19/25 44/28/44 43/27/43
f 27/17/27 44/28/44 25/19/25
f 27/17/27 45/27/45 44/28/44
f 29/15/29 45/27/45 27/17/27
f 29/15/29 46/26/46 45/27/45
f 31/13/31 46/26/46 29/15/29
f 31/13/31 47/25/47 46/26/46
f 7/7/7 6/6/6 5/5/5
f 7/7/7 8/8/8 6/6/6
f 9/9/9 8/8/8 7/7/7
f 9/9/9 10/10/10 8/8/8
f 11/7/11 10/10/10 9/9/9
f 11/7/11 12/8/12 10/10/10
f 13/5/13 12/8/12 11/7/11
f 13/5/13 14/6/14 12/8/12
f 15/3/15 14/6/14 13/5/13
f 15/3/15 16/4/16 14/6/14
f 17/11/17 16/4/16 15/3/15
f 17/11/17 39/2/39 16/4/16
f 18/12/18 39/2/39 17/11/17
f 18/12/18 19/13/19 39/2/39
f 3/3/3 2/2/2 1/1/1
f 3/3/3 4/4/4 2/2/2
f 5/5/5 4/4/4 3/3/3
f 5/5/5 6/6/6 4/4/4
f 2/2/2 47/25/47 31/13/31
f 2/2/2 48/24/48 47/25/47
f 4/4/4 48/24/48 2/2/2
f 4/4/4 32/20/32 48/24/48
f 6/6/6 32/20/32 4/4/4
f 6/6/6 33/21/33 32/20/32
f 8/8/8 33/21/33 6/6/6
f 8/8/8 34/22/34 33/21/33
f 10/10/10 34/22/34 8/8/8
f 10/10/10 35/23/35 34/22/34
f 12/8/12 35/23/35 10/10/10
f 12/8/12 36/22/36 35/23/35
f 1/1/1 31/13/31 30/12/30
f 1/1/1 2/2/2 31/13/31
f 39/2/39 38/20/38 16/4/16
f 39/2/39 40/24/40 38/20/38
f 16/4/16 37/21/37 14/6/14
f 16/4/16 38/20/38 37/21/37
f 14/6/14 36/22/36 12/8/12
f 14/6/14 37/21/37 36/22/36

