# ProBuilder 4.5.2
# https://unity3d.com/unity/features/worldbuilding/probuilder
# 4/4/2022 10:43:11 p. m.

mtllib ./FloorStairs.mtl
o FloorStairs

g Floor Base (63)
v -4.250004 0 1.587024E-06
v -4.250004 0.0999999 1.587024E-06
v 1 0.0999999 0
v 1 0 0
v -4.250007 0 -4.499999
v -4.250007 0.0999999 -4.499999
v 1 0 -4.5
v 1 0.0999999 -4.5
v 1 0.0999999 -1.125
v -1.625007 0.0999999 -1.125
v -1.625004 0.0999999 -3.375
v 1 0.0999999 -3.375
v 1 0 -3.375
v -1.625004 0 -3.375
v -1.625007 0 -1.125
v 1 0 -1.125
v 5.49999 0 -4.500008
v 5.49999 0.0999999 -4.500008
v 0.9999899 0.0999999 -4.500005
v 0.9999899 0 -4.500005
v 5.5 0 -7.644296E-06
v 5.5 0.0999999 -7.644296E-06
v 0.9999924 0.0999999 -3.375005
v 2.624992 0.0999999 -3.375005
v 2.624997 0.0999999 -1.125005
v 0.9999975 0.0999999 -1.125005
v 0.9999975 0 -1.125005
v 2.624997 0 -1.125005
v 2.624992 0 -3.375005
v 0.9999924 0 -3.375005

vt -4.250004 0
vt -4.250004 0.0999999
vt 1 0.0999999
vt 1 0
vt -6.647094E-07 0
vt -4.500001 0
vt -4.500001 0.0999999
vt -6.647094E-07 0.0999999
vt 4.250005 0.0999999
vt 4.250005 0
vt -1.000001 0
vt -1.000001 0.0999999
vt -1 -1.125
vt 1.625007 -1.125
vt 4.250007 -4.499999
vt 1.625004 -3.375
vt -1 -4.5
vt -1 -3.375
vt 1.654518 0.2650547
vt 1.654518 0.02225661
vt 1.087989 0.2650547
vt 0.5214598 0.9934491
vt 0.5214593 0.02225685
vt 1.087988 0.7506509
vt 1.654518 0.9934487
vt 1.654518 0.7506506
vt -1.625004 0
vt -1.625004 0.0999999
vt 1.625006 0
vt 1.625006 0.0999999
vt 3.374998 0.0999999
vt 1.124998 0.0999999
vt 1.124998 0
vt 3.374998 0
vt 4.5 0
vt 4.5 0.0999999
vt 1.125 0
vt 1.125 0.0999999
vt -3.5 0
vt -3.5 0.0999999
vt 3.5 0.0999999
vt 3.5 0
vt -0.9999924 -3.375005
vt -0.9999899 -4.500005
vt -2.624992 -3.375005
vt -5.49999 -4.500008
vt -5.5 -7.644296E-06
vt -2.624997 -1.125005
vt -0.9999975 -1.125005
vt 3.418922 0.7506466
vt 3.418922 0.9934446
vt 3.76963 0.7506466
vt 4.390112 0.02225208
vt 4.390114 0.9934438
vt 3.769629 0.2650506
vt 3.41892 0.02225256
vt 3.418921 0.2650506
vt -0.6249959 0
vt -0.6249959 0.0999999
vt 0.6250012 -2.831221E-07
vt -1 0.1000002
vt 0.6250012 0.0999999

vn 3.022901E-07 0 1
vn -1 0 5.298191E-07
vn -2.72478E-07 0 -1
vn 0 1 0
vn 0 -1 0
vn 1 0 1.165602E-06

usemtl Lit
f 2/2/1 1/1/1 4/4/1 3/3/1
f 2/8/2 6/7/2 5/6/2 1/5/2
f 8/12/3 7/11/3 5/10/3 6/9/3
f 7/35/6 8/36/6 12/31/6 13/34/6
f 16/37/6 9/38/6 3/8/6 4/5/6
f 18/40/3 17/39/3 20/4/3 19/3/3
f 18/8/6 22/7/6 21/6/6 17/5/6
f 3/12/1 4/11/1 21/42/1 22/41/1
f 4/35/2 3/36/2 26/31/2 27/34/2
f 30/37/2 23/38/2 19/8/2 20/5/2

usemtl Dark
f 12/3/1 11/28/1 14/27/1 13/4/1
f 10/30/3 9/12/3 16/11/3 15/29/3
f 10/32/6 15/33/6 14/34/6 11/31/6
f 26/3/3 25/59/3 28/58/3 27/4/3
f 24/62/1 23/61/1 30/11/1 29/60/1
f 24/32/2 29/33/2 28/34/2 25/31/2

usemtl TileFloorB1
f 12/18/4 8/17/4 6/15/4
f 12/18/4 6/15/4 11/16/4
f 10/14/4 11/16/4 6/15/4
f 2/10/4 10/14/4 6/15/4
f 3/11/4 9/13/4 10/14/4
f 3/11/4 10/14/4 2/10/4
f 26/49/4 3/11/4 22/47/4
f 26/49/4 22/47/4 25/48/4
f 24/45/4 25/48/4 22/47/4
f 18/46/4 24/45/4 22/47/4
f 19/44/4 23/43/4 24/45/4
f 19/44/4 24/45/4 18/46/4

usemtl Ceiling_White
f 14/21/5 7/20/5 13/19/5
f 5/23/5 7/20/5 14/21/5
f 1/22/5 5/23/5 14/21/5
f 1/22/5 14/21/5 15/24/5
f 1/22/5 15/24/5 4/25/5
f 15/24/5 16/26/5 4/25/5
f 28/52/5 4/51/5 27/50/5
f 21/54/5 4/51/5 28/52/5
f 17/53/5 21/54/5 28/52/5
f 17/53/5 28/52/5 29/55/5
f 17/53/5 29/55/5 20/56/5
f 29/55/5 30/57/5 20/56/5

