# ProBuilder 4.5.2
# https://unity3d.com/unity/features/worldbuilding/probuilder
# 5/4/2022 12:08:10 a. m.

mtllib ./Floor_Base_4.mtl
o Floor Base 4

g Floor Base (57)
v 0 0 0
v -4.5 0 0
v 0 0.1 0
v -4.5 0.1 0
v -4.5 0 -4.5
v -4.5 0.1 -4.5
v 0 0 -4.5
v 0 0.1 -4.5

vt 0 0
vt -4.5 0
vt 0 0.1
vt -4.5 0.1
vt 4.5 0
vt 4.5 0.1
vt 1.6875 -1.6875
vt 2.8125 -1.6875
vt 1.6875 -2.8125
vt 2.8125 -2.8125
vt 0.9485883 0.0222559
vt -0.02260399 0.0222559
vt 0.9485883 0.9934481
vt -0.02260399 0.9934481

vn 0 0 1
vn -1 0 0
vn 0 0 -1
vn 1 0 0
vn 0 1 0
vn 0 -1 0

usemtl Lit
f 3/3/1 4/4/1 2/2/1 1/1/1
f 4/3/2 6/4/2 5/2/2 2/1/2
f 8/6/4 3/3/4 1/1/4 7/5/4

usemtl Ceiling_White
f 1/13/6 2/14/6 5/12/6 7/11/6

usemtl Dark
f 6/6/3 8/3/3 7/1/3 5/5/3

usemtl Wood_Floor_011
f 8/9/5 6/10/5 4/8/5 3/7/5

