# ProBuilder 4.5.2
# https://unity3d.com/unity/features/worldbuilding/probuilder
# 5/4/2022 12:10:35 a. m.

mtllib ./Floor_Base_5.mtl
o Floor Base 5

g Floor Base (78)
v 0 0 0
v -4.5 0 0
v 0 0.1 0
v -4.5 0.1 0
v -4.5 0 -4.5
v -4.5 0.1 -4.5
v 0 0 -4.5
v 0 0.1 -4.5

vt 0 0
vt -4.5 0
vt 0 0.1
vt -4.5 0.1
vt 4.5 0
vt 4.5 0.1
vt 0 -4.5
vt 4.5 -4.5
vt 0.9485883 0.0222559
vt -0.02260399 0.0222559
vt 0.9485883 0.9934481
vt -0.02260399 0.9934481

vn 0 0 1
vn -1 0 0
vn 0 0 -1
vn 1 0 0
vn 0 1 0
vn 0 -1 0

usemtl Lit
f 3/3/1 4/4/1 2/2/1 1/1/1
f 4/3/2 6/4/2 5/2/2 2/1/2
f 8/6/4 3/3/4 1/1/4 7/5/4

usemtl Ceiling_Gypsum_001
f 1/11/6 2/12/6 5/10/6 7/9/6

usemtl Dark
f 6/6/3 8/3/3 7/1/3 5/5/3

usemtl Wood_floor
f 8/7/5 6/8/5 4/5/5 3/1/5

