# ProBuilder 4.5.2
# https://unity3d.com/unity/features/worldbuilding/probuilder
# 6/4/2022 12:56:51 p. m.

mtllib ./LightShape.mtl
o LightShape

g LightShape
v -1.089491 0.4343 -3.350276
v -1.249192 0.6238621 -5.051519
v -1.072075 0.935793 -5.044993
v -0.9700734 0.6514498 -3.337224
v -1.408892 0.8134242 -6.752763
v -1.174077 1.220136 -6.752763
v -0.9392614 1.626848 -6.752763
v -0.8949587 1.247724 -5.038467
v -0.850656 0.8685996 -3.324171
v -0.7620506 0.1103507 0.1044204
v -0.76607 0.08276325 0.07831533
v -0.8680717 0.3671065 -1.629454
v -0.8063533 0.4894751 -1.609875
v -0.7700894 0.05517582 0.05221025
v -0.9297901 0.2447379 -1.649033
v -0.7741088 0.02758838 0.02610517
v -0.9915084 0.1223693 -1.668612
v -0.7781281 9.440273E-07 9.870373E-08
v -1.053227 6.669641E-07 -1.688191
v -1.328326 3.899008E-07 -3.376381
v -1.208908 0.2171502 -3.363329
v -1.426308 0.3119311 -5.058046
v -1.603424 1.128376E-07 -5.064572
v -1.878523 -1.642257E-07 -6.752763
v -1.643708 0.406712 -6.752763
v -1.088232 -0.4361791 -3.376381
v -1.248562 -0.6248017 -5.064572
v -1.425993 -0.3124008 -5.064572
v -1.208279 -0.2180893 -3.376381
v -1.408892 -0.8134243 -6.752763
v -1.643707 -0.4067123 -6.752763
v -0.9905645 -0.1237779 -1.688191
v -0.9279021 -0.2475564 -1.688191
v -0.7728502 -0.02946643 1.558821E-07
v -0.7675722 -0.05893379 2.130605E-07
v -0.7570162 -0.1178685 3.274173E-07
v -0.8025774 -0.4951136 -1.68819
v -0.8652398 -0.371335 -1.688191
v -0.7622942 -0.08840117 2.702389E-07
v -0.8481387 -0.8723586 -3.376381
v -0.9681854 -0.6542688 -3.376381
v -0.8936999 -1.249604 -5.064572
v -1.071131 -0.9372026 -5.064572
v -0.9392611 -1.626849 -6.752763
v -1.174077 -1.220136 -6.752763
v 0.0280221 -0.8715991 -3.376381
v 0.01401105 -1.249224 -5.064572
v -0.4398444 -1.249414 -5.064572
v -0.4100583 -0.8719788 -3.376381
v 0 -1.626849 -6.752763
v -0.4696306 -1.626849 -6.752763
v 0.05604422 -0.1163495 3.414873E-07
v 0.04203316 -0.4939743 -1.68819
v -0.3802722 -0.4945439 -1.68819
v -0.350486 -0.117109 3.344523E-07
v 0.8691046 -0.1148305 3.555572E-07
v 0.8866438 -0.492835 -1.68819
v 0.4643385 -0.4934046 -1.68819
v 0.4625744 -0.11559 3.485222E-07
v 0.9041829 -0.8708395 -3.376381
v 0.4661025 -0.8712193 -3.376381
v 0.9217221 -1.248844 -5.064572
v 0.4678665 -1.249034 -5.064572
v 0.9392611 -1.626849 -6.752763
v 0.4696306 -1.626849 -6.752763
v 1.140542 -0.4354195 -3.376381
v 1.274717 -0.6244219 -5.064572
v 1.098219 -0.936633 -5.064572
v 1.022362 -0.6531295 -3.376381
v 1.408892 -0.8134243 -6.752763
v 1.174077 -1.220136 -6.752763
v 0.872191 -0.05741476 3.050564E-07
v 1.006366 -0.2464171 -1.68819
v 0.946505 -0.3696261 -1.68819
v 0.8706478 -0.08612262 3.303068E-07
v 0.8752774 9.856246E-07 2.545555E-07
v 1.126089 7.392185E-07 -1.68819
v 1.066227 -0.1232082 -1.68819
v 0.8737342 -0.02870688 2.79806E-07
v 1.3769 4.928123E-07 -3.376381
v 1.258721 -0.2177095 -3.376381
v 1.878523 0 -6.752763
v 1.643707 -0.4067121 -6.752763
v 1.451214 -0.3122108 -5.064572
v 1.627711 2.464062E-07 -5.064572
v 1.408892 0.8134243 -6.752763
v 1.643707 0.4067121 -6.752763
v 1.451465 0.3120544 -5.058046
v 1.275218 0.6241085 -5.051519
v 1.259222 0.2173966 -3.363329
v 1.141544 0.4347927 -3.350276
v 1.066979 0.1227388 -1.668612
v 1.00787 0.2454769 -1.649033
v 0.8747368 0.02808102 0.02610526
v 0.8741961 0.05616105 0.05221026
v 0.9061881 0.8695849 -3.324171
v 1.023866 0.6521888 -3.337224
v 0.9487607 0.3682149 -1.629454
v 0.8896514 0.490953 -1.609876
v 0.8736554 0.08424108 0.07831527
v 0.8731148 0.1123211 0.1044203
v 0.9392613 1.626849 -6.752763
v 1.174077 1.220136 -6.752763
v 1.098971 0.9361626 -5.044993
v 0.9227247 1.248217 -5.038467
v 0.4669771 0.8693385 -3.324171
v 0.4683039 1.248093 -5.038467
v 0.02776605 0.8690922 -3.324171
v 0.01388299 1.24797 -5.038467
v -5.960464E-08 1.626848 -6.752763
v 0.4696306 1.626848 -6.752763
v 0.4643235 0.1118285 0.1044203
v 0.4656503 0.4905835 -1.609875
v 0.05553213 0.1113359 0.1044203
v 0.04164909 0.490214 -1.609875
v -0.411445 0.8688459 -3.324171
v -0.3823521 0.4898446 -1.609876
v -0.3532592 0.1108433 0.1044204
v -0.4696307 1.626848 -6.752763
v -0.4405379 1.247847 -5.038467

vt 0.1665821 0.5006707
vt 0.1706161 0.2504978
vt 0.125042 0.2496676
vt 0.1350179 0.5012621
vt 0.1667604 0.2490147
vt 0.1696453 0.000282228
vt 0.1248727 0.001345634
vt 0.1325212 0.2507133
vt 0.1217103 -0.0003072023
vt 0.08321047 0.001312792
vt 0.0956378 0.2511492
vt 0.1250911 0.2490228
vt 0.08337831 0.2496377
vt 0.09841537 0.5018741
vt 0.124917 0.5006655
vt 0.1216092 0.2495786
vt 0.09533489 1.011371
vt 0.1074764 1.018496
vt 0.1489372 0.7726787
vt 0.1011692 0.7311745
vt 0.1338922 1.008461
vt 0.149063 1.018501
vt 0.2041768 0.7856917
vt 0.1427983 0.731295
vt 0.1657925 0.7542419
vt 0.1755207 0.5018249
vt 0.125829 0.4959776
vt 0.1380727 0.7526942
vt 0.1219678 0.4994398
vt 0.08392572 0.4967944
vt 0.1030991 0.7536516
vt 0.124367 0.7534262
vt 0.1698305 1.003021
vt 0.1906642 1.018506
vt 0.2710196 0.8098527
vt 0.1844007 0.7314265
vt 0.1958522 0.9880568
vt 0.2307696 1.01706
vt 0.3748788 0.8694957
vt 0.2259683 0.7315706
vt 0.2469981 0.7539377
vt 0.3008809 0.510824
vt 0.2091923 0.4959627
vt 0.1961563 0.7474096
vt 0.2325644 0.5050734
vt 0.1675103 0.4959712
vt 0.171252 0.7509601
vt 0.2074313 0.7543085
vt 0.1691918 0.5003187
vt 0.2082467 0.5006874
vt 0.2231507 0.2518712
vt 0.1667109 0.2496504
vt 0.1986012 0.4987512
vt 0.2491994 0.5006141
vt 0.2815614 0.2540501
vt 0.2083759 0.2496679
vt 0.2497439 0.2489811
vt 0.2738619 0.002298921
vt 0.2082014 0.001369119
vt 0.1995711 0.2491557
vt 0.2133679 0.0003198534
vt 0.1664939 0.00271678
vt 0.1726685 0.2503814
vt 0.2084813 0.2476682
vt 0.3310418 0.500293
vt 0.3331819 0.2488159
vt 0.2768083 0.2518985
vt 0.2919855 0.5024956
vt 0.3375082 0.2494646
vt 0.3333478 0.0001125634
vt 0.2918205 0.2511999
vt 0.291842 0.002754398
vt 0.2341757 0.001005881
vt 0.2501345 0.248549
vt 0.294251 0.2498356
vt 0.2342896 0.2509911
vt 0.2504039 0.4998375
vt 0.2902298 0.5000907
vt 0.3330193 0.4975232
vt 0.2818899 0.5012403
vt 0.292146 0.7537794
vt 0.3206208 0.7516125
vt 0.2916765 0.5001554
vt 0.2345662 0.5009565
vt 0.2510488 0.751088
vt 0.2828996 0.7505434
vt 0.2359759 0.7507892
vt 0.2530583 1.002065
vt 0.2655928 1.001467
vt 0.2916065 0.7489309
vt 0.2922889 1.004995
vt 0.300887 1.004042
vt 0.3328692 0.7462743
vt 0.291279 0.7500483
vt 0.3837355 1.008281
vt 0.4145061 0.7414083
vt 0.3839833 0.7477411
vt 0.3774513 1.009748
vt 0.401737 0.7538255
vt 0.4147582 0.4925526
vt 0.3707173 0.5010973
vt 0.3772233 0.7586766
vt 0.3740382 0.4949709
vt 0.3269837 0.5012144
vt 0.3345382 0.7562998
vt 0.3607366 0.7527276
vt 0.3392493 0.7488892
vt 0.3347313 1.007445
vt 0.341866 1.006221
vt 0.3738306 0.7437719
vt 0.4139123 0.5007112
vt 0.4150634 0.2437896
vt 0.3616667 0.253443
vt 0.3769274 0.5074641
vt 0.4227247 0.2484294
vt 0.4153824 -0.004954338
vt 0.3550916 0.005161881
vt 0.3766122 0.2562172
vt 0.3745203 -0.002479136
vt 0.3140845 0.003724039
vt 0.3340631 0.2537722
vt 0.3802896 0.2489769
vt 0.3193245 0.252699
vt 0.3343058 0.5050477
vt 0.3723717 0.5005066
vt 0.3742752 0.2462395
vt 0.4999971 0.5003452
vt 0.5007339 0.2500062
vt 0.4583362 0.249661
vt 0.4590732 0.5000062
vt 0.4999972 0.2503414
vt 0.5007678 6.198883E-06
vt 0.4583361 -0.0003352165
vt 0.4589908 0.2500052
vt 0.4599036 2.717972E-05
vt 0.416679 -0.0007147789
vt 0.4165483 0.2499981
vt 0.4583209 0.250721
vt 0.4166792 0.2492814
vt 0.4166775 0.5000005
vt 0.4583207 0.5007253
vt 0.459822 0.2500257
vt 0.499997 1.000355
vt 0.500652 0.7500055
vt 0.4583363 0.7496525
vt 0.4592621 1.000008
vt 0.4999971 0.7503498
vt 0.5006943 0.5000057
vt 0.4583362 0.4996569
vt 0.4591643 0.7500069
vt 0.4597327 0.5000243
vt 0.4166793 0.4992771
vt 0.4168176 0.7500029
vt 0.4583205 0.7507296
vt 0.4166795 0.7492726
vt 0.4169673 1.000005
vt 0.4583204 1.000734
vt 0.4596373 0.7500229
vt 0.5840204 0.9999931
vt 0.5833293 0.7495898
vt 0.5393363 0.7500229
vt 0.5416706 1.000403
vt 0.5840911 0.7499924
vt 0.5833293 0.4995856
vt 0.5393243 0.5000234
vt 0.5416707 0.7504079
vt 0.5416666 0.4999678
vt 0.5013875 0.750031
vt 0.5417398 0.7499998
vt 0.5014572 1.000024
vt 0.5417113 0.9999999
vt 0.5841581 0.4999914
vt 0.5833291 0.2495813
vt 0.5393119 0.2500234
vt 0.5416708 0.500412
vt 0.584223 0.2499909
vt 0.5833291 -0.0004220009
vt 0.5392979 2.43187E-05
vt 0.5416709 0.2504163
vt 0.5416666 -3.814697E-05
vt 0.4997716 6.198883E-06
vt 0.501264 0.2500372
vt 0.501323 0.5000343
vt 0.5416666 0.2499647
vt 0.6663125 0.5027893
vt 0.6708143 0.2505265
vt 0.6252024 0.2484033
vt 0.6348093 0.5012451
vt 0.6664615 0.2515993
vt 0.6752582 0.001101017
vt 0.6250501 -0.0003921986
vt 0.6281214 0.2504
vt 0.6360335 0.002130747
vt 0.5839157 -0.00301671
vt 0.5843954 0.2502052
vt 0.6241899 0.2541941
vt 0.584137 0.2457981
vt 0.5921335 0.501683
vt 0.6239758 0.5053539
vt 0.6302462 0.2510036
vt 0.6661547 1.00458
vt 0.653019 0.7484746
vt 0.6254293 0.7461578
vt 0.6598879 1.003899
vt 0.6661808 0.7539156
vt 0.6643348 0.4997108
vt 0.6253438 0.4972289
vt 0.6446047 0.7524319
vt 0.6222918 0.499494
vt 0.5843308 0.4946614
vt 0.6028016 0.7536376
vt 0.623801 0.7564164
vt 0.584397 0.7436686
vt 0.6181523 1.00585
vt 0.6238582 1.006796
vt 0.6095222 0.7473994
vt 0.7498303 1.002637
vt 0.7660218 0.7510309
vt 0.7084216 0.7486265
vt 0.7386629 1.001952
vt 0.7498859 0.7516232
vt 0.7674836 0.5012288
vt 0.7083591 0.499634
vt 0.7172195 0.7506245
vt 0.7067523 0.4999025
vt 0.6666746 0.4998734
vt 0.6860662 0.7511977
vt 0.7082512 0.7513288
vt 0.6667382 0.7487165
vt 0.7009901 1.001912
vt 0.7082059 1.002287
vt 0.6984659 0.7494504
vt 0.7683196 0.001349576
vt 0.708189 0.001959786
vt 0.7041345 0.2496908
vt 0.7500525 0.2492857
vt 0.7134356 0.0003252625
vt 0.6665206 0.002295017
vt 0.6725726 0.2503766
vt 0.7084012 0.2489318
vt 0.6665983 0.2510795
vt 0.6777501 0.5007002
vt 0.7083244 0.5001435
vt 0.7108583 0.2501594
vt 0.7086973 0.5000262
vt 0.7499657 0.50047
vt 0.7680326 0.2513077
vt 0.7082763 0.2507813
vt 0.8332763 -0.0004453063
vt 0.7736154 0.002311304
vt 0.7917576 0.2507088
vt 0.8373423 0.2494867
vt 0.79181 0.001941234
vt 0.7316804 0.001349568
vt 0.7498803 0.2483702
vt 0.7957716 0.2496977
vt 0.7275257 0.2520369
vt 0.7499428 0.4993689
vt 0.794241 0.4997669
vt 0.7916088 0.4993505
vt 0.8254533 0.5007001
vt 0.833416 0.2509302
vt 0.7843814 0.2506471
vt 0.8332548 0.499348
vt 0.7834482 0.5009899
vt 0.7917774 0.7509193
vt 0.8192499 0.7516963
vt 0.7197245 0.5037217
vt 0.7501208 0.7509818
vt 0.7896641 0.750246
vt 0.7001128 0.7603865
vt 0.7509596 1.004608
vt 0.767875 1.004953
vt 0.7907714 0.7456996
vt 0.7925754 1.00445
vt 0.8023865 1.006319
vt 0.8324716 0.7457799
vt 0.7814149 0.7520934
vt 0.9151772 0.4940802
vt 0.8712307 0.5009484
vt 0.8765229 0.756052
vt 0.9010125 0.7539389
vt 0.8749251 0.4993643
vt 0.8369129 0.4995777
vt 0.8334348 0.7508587
vt 0.8544497 0.7524245
vt 0.8387025 0.7489247
vt 0.834194 1.004297
vt 0.8412036 1.006769
vt 0.8741702 0.7458566
vt 0.875815 1.004148
vt 0.8813213 1.006943
vt 0.9158673 0.7459302
vt 0.8887416 0.7473006
vt 0.91679 0.001810431
vt 0.8819704 -0.0004748106
vt 0.8748918 0.2484065
vt 0.9014921 0.2510335
vt 0.8751278 0.001842856
vt 0.8345685 -8.589029E-05
vt 0.8332219 0.2483974
vt 0.8641973 0.2507506
vt 0.8355725 0.2498088
vt 0.8605611 0.5012312
vt 0.8750765 0.2508976
vt 0.8977704 0.5015784
vt 0.9167404 0.250882
vt 0.8837123 0.2492723
vt 0.9179772 0.5000014
vt 0.9583333 0.5000381
vt 0.9584203 0.25
vt 0.9166667 0.2499661
vt 0.9384263 0.498385
vt 0.997864 0.5031991
vt 1.020101 0.251627
vt 0.9586046 0.2466497
vt 0.997797 0.2535148
vt 1.022091 0.001967907
vt 0.9586613 -0.00368166
vt 0.9364216 0.2480445
vt 0.9584177 0
vt 0.9166667 -3.147125E-05
vt 0.9179345 0.250001
vt 0.9180952 1.000001
vt 0.9583333 1.000041
vt 0.9584019 0.7500001
vt 0.9166667 0.7499638
vt 0.9424758 0.9989713
vt 0.9979864 1.002562
vt 1.016083 0.7510389
vt 0.9585065 0.7473195
vt 0.9979272 0.7528813
vt 1.018098 0.501317
vt 0.958553 0.4969835
vt 0.9404446 0.7486939
vt 0.9166667 0.4999661
vt 0.9180412 0.7500012
vt 1.083333 0.5
vt 1.044237 0.5
vt 1.041667 0.7499959
vt 1.079409 0.75
vt 1.041667 0.5
vt 1.001258 0.5
vt 1 0.7499959
vt 1.03901 0.75
vt 1.001291 0.7500001
vt 1 0.9999959
vt 1.038928 1
vt 1.041667 0.7500001
vt 1.041667 0.9999958
vt 1.079287 1
vt 1.083333 0.75
vt 1.044314 0.75
vt 1.083333 0
vt 1.044097 0
vt 1.041667 0.2499962
vt 1.079632 0.25
vt 1.041667 0
vt 1.001196 0
vt 1 0.2499962
vt 1.03916 0.25
vt 1.001226 0.25
vt 1 0.4999962
vt 1.039087 0.5
vt 1.041667 0.25
vt 1.041667 0.4999962
vt 1.079524 0.5
vt 1.083333 0.25
vt 1.044165 0.25

vn -0.8744619 0.4660746 0.1345021
vn -0.8644328 0.4841637 0.1354304
vn -0.8636287 0.4863856 0.132569
vn -0.8765185 0.4634805 0.1300045
vn -0.8592775 0.4933379 0.1351296
vn -0.859521 0.4934913 0.1330036
vn -0.4936015 0.8463933 0.19994
vn -0.4967717 0.8445281 0.1999753
vn -0.503797 0.8404855 0.1994312
vn -0.6681461 0.7226555 0.1770585
vn -0.981623 0.173111 0.08030455
vn -0.9132334 0.3892949 0.1202259
vn -0.5542134 0.809139 0.1952991
vn -0.9827582 0.1542785 0.1019042
vn -0.9113253 0.390912 0.1291274
vn -0.9830697 0.1334075 0.1256041
vn -0.9117057 0.3867571 0.1386061
vn -0.9882254 -0.04538689 0.1461183
vn -0.9872055 -0.009243006 0.159185
vn -0.9871269 -0.003262859 0.1599053
vn -0.8730711 0.4676105 0.138157
vn -0.8636065 0.4848453 0.1382353
vn -0.9870862 -0.0009930186 0.1601871
vn -0.9869816 -2.401092E-07 0.1608334
vn -0.8601593 0.4910546 0.1378089
vn -0.8692145 -0.4754565 0.1356733
vn -0.861792 -0.4885698 0.1364337
vn -0.862794 -0.4862334 0.1384321
vn -0.871679 -0.4700483 0.1386736
vn -0.8588101 -0.4938119 0.1363636
vn -0.859445 -0.4921573 0.1383311
vn -0.9135785 -0.3821096 0.1391637
vn -0.8981672 -0.4193231 0.1321506
vn -0.975253 -0.1746803 0.1355302
vn -0.9614611 -0.2450917 0.12459
vn -0.5741222 -0.7939187 0.2001921
vn -0.5129027 -0.8345623 0.2010887
vn -0.8990139 -0.4196554 0.1251534
vn -0.9635957 -0.2455302 0.1058219
vn -0.5004731 -0.8418447 0.20205
vn -0.8695636 -0.4756456 0.1327419
vn -0.4955435 -0.844667 0.202421
vn -0.8620256 -0.488702 0.1344705
vn -0.4934025 -0.8459365 0.20235
vn -0.858997 -0.4939194 0.1347875
vn 0.0008500711 -0.9758847 0.2182848
vn 0.000411985 -0.9758843 0.2182883
vn 0.001696496 -0.9758785 0.218308
vn 0.001320905 -0.9758851 0.2182809
vn 0.6021736 -0.7754648 0.1898453
vn 0.5211209 -0.8314825 0.1925355
vn 0.504486 -0.8413132 0.1941287
vn 0.4976952 -0.8452017 0.1947654
vn 0.4946334 -0.8469916 0.1947896
vn 0.8739284 -0.4704611 0.1221291
vn 0.8643826 -0.487489 0.1232769
vn 0.8646541 -0.4876417 0.1207434
vn 0.8743346 -0.4706774 0.1183294
vn 0.860546 -0.494237 0.1232493
vn 0.8607628 -0.4943615 0.1212188
vn 0.9831936 -0.1507647 0.1029584
vn 0.9113283 -0.3948137 0.1166315
vn 0.9123138 -0.3951689 0.1073547
vn 0.9854857 -0.1509839 0.07760041
vn 0.9908513 -0.04070585 0.1286731
vn 0.9894021 -0.009390066 0.1448976
vn 0.9307558 -0.3434822 0.125354
vn 0.9918087 -0.05331466 0.1160738
vn 0.989309 -0.00332668 0.1457967
vn 0.8771393 -0.463424 0.1259555
vn 0.9891431 -1.029592E-07 0.1469551
vn 0.8613907 -0.4921269 0.1257666
vn 0.8656993 -0.4844908 0.1258305
vn 0.9892622 -0.001013778 0.1461485
vn 0.8610064 0.4937479 0.1219873
vn 0.862112 0.4910007 0.125224
vn 0.8662939 0.4834662 0.1256794
vn 0.8672599 0.4826113 0.1222563
vn 0.87773 0.4624541 0.1254046
vn 0.8793572 0.4605508 0.1209295
vn 0.9229298 0.3640898 0.1250562
vn 0.9225186 0.3688681 0.1135598
vn 0.993008 0.05201331 0.1059701
vn 0.9940457 0.07655682 0.07753865
vn 0.5067499 0.8406168 0.1912275
vn 0.8817812 0.457321 0.1154102
vn 0.9247016 0.3665843 0.1026783
vn 0.5662577 0.8031099 0.1853825
vn 0.9937603 0.09892217 0.051525
vn 0.70288 0.6931046 0.1598927
vn 0.494819 0.8475281 0.1919644
vn 0.861272 0.4939167 0.1194018
vn 0.8662459 0.4852892 0.1187955
vn 0.4984797 0.845374 0.1919914
vn -0.0006234189 0.9764516 0.2157359
vn -0.0003354542 0.9764516 0.2157361
vn -0.001176644 0.9764512 0.2157354

usemtl LightShape
f 4/4/4 3/3/3 2/2/2 1/1/1
f 6/7/6 5/6/5 2/5/2 3/8/3
f 7/10/7 6/9/6 3/12/3 8/11/8
f 8/13/8 3/16/3 4/15/4 9/14/9
f 13/20/13 12/19/12 11/18/11 10/17/10
f 12/24/12 15/23/15 14/22/14 11/21/11
f 4/27/4 1/26/1 15/25/15 12/28/12
f 13/31/13 9/30/9 4/29/4 12/32/12
f 15/36/15 17/35/17 16/34/16 14/33/14
f 17/40/17 19/39/19 18/38/18 16/37/16
f 21/43/21 20/42/20 19/41/19 17/44/17
f 1/46/1 21/45/21 17/48/17 15/47/15
f 2/52/2 22/51/22 21/50/21 1/49/1
f 22/56/22 23/55/23 20/54/20 21/53/21
f 25/59/25 24/58/24 23/57/23 22/60/22
f 2/63/2 5/62/5 25/61/25 22/64/22
f 29/68/29 28/67/28 27/66/27 26/65/26
f 28/71/28 31/58/31 30/70/30 27/69/27
f 23/74/23 24/73/24 31/72/31 28/75/28
f 20/77/20 23/76/23 28/71/28 29/78/29
f 32/81/32 29/80/29 26/79/26 33/82/33
f 19/85/19 20/84/20 29/83/29 32/86/32
f 18/88/18 19/87/19 32/90/32 34/89/34
f 34/91/34 32/94/32 33/93/33 35/92/35
f 39/98/39 38/97/38 37/96/37 36/95/36
f 38/102/38 41/101/41 40/100/40 37/99/37
f 33/105/33 26/104/26 41/103/41 38/106/38
f 35/108/35 33/107/33 38/110/38 39/109/39
f 41/114/41 43/113/43 42/112/42 40/111/40
f 43/118/43 45/117/45 44/116/44 42/115/42
f 27/121/27 30/120/30 45/119/45 43/122/43
f 26/124/26 27/123/27 43/126/43 41/125/41
f 49/130/46 48/129/47 47/128/47 46/127/46
f 48/134/47 51/133/47 50/132/47 47/131/47
f 42/137/42 44/136/44 51/135/47 48/138/47
f 40/140/40 42/139/42 48/142/47 49/141/46
f 55/146/48 54/145/49 53/144/49 52/143/48
f 54/150/49 49/149/46 46/148/46 53/147/49
f 37/153/37 40/152/40 49/151/46 54/154/49
f 36/156/36 37/155/37 54/158/49 55/157/48
f 59/162/48 58/161/49 57/160/51 56/159/50
f 58/166/49 61/165/46 60/164/52 57/163/51
f 53/168/49 46/127/46 61/167/46 58/169/49
f 52/170/48 53/147/49 58/169/49 59/171/48
f 61/175/46 63/174/46 62/173/53 60/172/52
f 63/179/46 65/178/47 64/177/54 62/176/53
f 47/182/47 50/181/47 65/180/47 63/179/46
f 46/183/46 47/131/47 63/184/46 61/175/46
f 69/188/58 68/187/57 67/186/56 66/185/55
f 68/192/57 71/191/60 70/190/59 67/189/56
f 62/195/53 64/194/54 71/193/60 68/196/57
f 60/198/52 62/197/53 68/200/57 69/199/58
f 75/204/64 74/203/63 73/202/62 72/201/61
f 74/208/63 69/207/58 66/206/55 73/205/62
f 57/211/51 60/210/52 69/209/58 74/212/63
f 56/214/50 57/213/51 74/216/63 75/215/64
f 76/217/65 79/220/68 78/219/67 77/218/66
f 77/221/66 78/224/67 81/223/70 80/222/69
f 73/227/62 66/226/55 81/225/70 78/228/67
f 72/230/61 73/229/62 78/232/67 79/231/68
f 85/236/74 84/235/73 83/234/72 82/233/71
f 67/239/56 70/238/59 83/237/72 84/240/73
f 66/242/55 67/241/56 84/244/73 81/243/70
f 80/246/69 81/245/70 84/248/73 85/247/74
f 88/251/77 87/250/76 86/249/75 89/252/78
f 88/256/77 85/255/74 82/254/71 87/253/76
f 90/259/79 80/258/69 85/257/74 88/251/77
f 91/261/80 90/260/79 88/263/77 89/262/78
f 93/267/82 92/266/81 90/265/79 91/264/80
f 92/270/81 77/269/66 80/268/69 90/260/79
f 94/273/83 76/272/65 77/271/66 92/274/81
f 95/276/84 94/275/83 92/278/81 93/277/82
f 98/281/87 97/280/86 96/279/85 99/282/88
f 98/286/87 93/285/82 91/284/80 97/283/86
f 100/289/89 95/288/84 93/287/82 98/290/87
f 101/292/90 100/291/89 98/294/87 99/293/88
f 105/298/94 104/297/93 103/296/92 102/295/91
f 104/302/93 89/301/78 86/300/75 103/299/92
f 97/304/86 91/264/80 89/303/78 104/305/93
f 96/306/85 97/283/86 104/308/93 105/307/94
f 96/309/85 105/312/94 107/311/96 106/310/95
f 106/313/95 107/316/96 109/315/96 108/314/95
f 107/320/96 111/319/96 110/318/96 109/317/96
f 105/323/94 102/322/91 111/321/96 107/311/96
f 101/324/90 99/327/88 113/326/95 112/325/97
f 112/328/97 113/331/95 115/330/95 114/329/97
f 113/335/95 106/334/95 108/333/95 115/332/95
f 99/337/88 96/336/85 106/310/95 113/326/95
f 13/341/13 117/340/95 116/339/95 9/338/9
f 117/345/95 115/344/95 108/343/95 116/342/95
f 118/348/97 114/347/97 115/346/95 117/349/95
f 10/351/10 118/350/97 117/353/95 13/352/13
f 8/357/8 120/356/96 119/355/96 7/354/7
f 120/361/96 109/360/96 110/359/96 119/358/96
f 116/364/95 108/363/95 109/362/96 120/365/96
f 9/367/9 116/366/95 120/369/96 8/368/8

