# ProBuilder 4.5.2
# https://unity3d.com/unity/features/worldbuilding/probuilder
# 4/4/2022 12:09:17 p. m.

mtllib ./simple_Wall.mtl
o simple_Wall

g Wall (7)
v -215.4219 -1.30818 35.82
v -215.4219 -1.30818 35.72
v -215.4219 1.69182 35.82
v -215.4219 1.69182 35.72
v -210.9219 -1.30818 35.72
v -210.9219 1.69182 35.72
v -210.9219 -1.30818 35.82
v -210.9219 1.69182 35.82

vt 0 0
vt -0.1 0
vt 0 3
vt -0.1 3
vt 2.48 -1.48
vt -1.48 -1.48
vt 2.48 2.48
vt -1.48 2.48
vt 0.1 0
vt 0.1 3
vt 2.8125 1.125
vt 1.6875 1.125
vt 2.8125 1.875
vt 1.6875 1.875
vt 0 -4.5
vt 0.1 -4.5
vt -0.1 -4.5

vn -1 0 0
vn 0 0 -1
vn 1 0 0
vn 0 0 1
vn 0 1 0
vn 0 -1 0

usemtl Mat_Walllime01_C
f 8/13/4 3/14/4 1/12/4 7/11/4

usemtl Toilet_wall_blue
f 4/7/2 6/8/2 5/6/2 2/5/2

usemtl Dark
f 3/3/1 4/4/1 2/2/1 1/1/1
f 6/10/3 8/3/3 7/1/3 5/9/3
f 8/15/5 6/16/5 4/9/5 3/1/5
f 1/1/6 2/2/6 5/17/6 7/15/6

