# ProBuilder 4.5.2
# https://unity3d.com/unity/features/worldbuilding/probuilder
# 10/4/2022 12:12:18 p. m.

mtllib ./toilet_seat_top.mtl
o toilet_seat top

g toilet_seat top
v 0.2059174 0.03029585 -0.2098212
v 0.231308 0.02990127 -0.1384602
v 0.2422333 0.02945924 -0.05857086
v 0.238327 0.02899194 0.02585602
v 0.2192535 0.02852201 0.1108294
v 0.1846313 0.02807093 0.1923599
v 0.138298 0.02770543 0.2584114
v 0.0844574 0.02745938 0.3028955
v 0.02635956 0.02733588 0.3252106
v -0.03276062 0.0273385 0.3247514
v -0.08964539 0.02747035 0.3009152
v -0.1410675 0.02773476 0.253098
v -0.1837845 0.0281353 0.1806965
v -0.2160721 0.0286212 0.09286404
v -0.2357025 0.02910066 0.006206036
v -0.2420959 0.02955842 -0.07653522
v -0.2346573 0.02997947 -0.1526194
v -0.2128143 0.0303483 -0.2193046
v -0.175972 0.03065014 -0.2738495
v -0.123558 0.03086948 -0.3135138
v 0.1131516 0.03085566 -0.3109989
v 0.1664124 0.03062153 -0.2686644
v -0.03125 0.006221056 0.319519
v 0.02467346 0.006218672 0.3199501
v -0.08547974 0.006346226 0.2968993
v 0.1332092 0.006577253 0.2551732
v 0.2136078 0.007386923 0.1088281
v 0.179512 0.006941795 0.1892805
v -0.1785736 0.007005215 0.1777959
v -0.2105408 0.007487297 0.09065771
v -0.2299423 0.007965326 0.004228592
v 0.2360611 0.008316755 -0.05924606
v -0.1711884 0.009484053 -0.2702656
v -0.2284241 0.008835554 -0.1530557
v -0.2068329 0.009194613 -0.2179523
v 0.1125488 0.009670734 -0.3039956
v 0.1998978 0.009141207 -0.2082796
v 0.2250366 0.008754015 -0.1382751
v 0.1736298 0.00140357 -0.2765546
v 0.1183395 0.001646042 -0.3203921
v 0.03501892 -0.004398108 -0.3131051
v 0.1154404 -0.004402876 -0.3122497
v 0.1614456 0.009456158 -0.2652245
v 0.1675415 -0.004631519 -0.2709455
v -0.04541016 -0.004393578 -0.3139606
v 0.2072754 -0.004956961 -0.2120981
v 0.2146454 0.0010674 -0.2158055
v 0.2330475 -0.005353928 -0.1403284
v 0.2410583 0.0006606579 -0.1422691
v 0.2442932 -0.005800009 -0.05971432
v 0.2323761 0.00785327 0.02454758
v 0.2525177 0.0002057552 -0.06007147
v 0.2405472 -0.006271601 0.02554989
v 0.2487183 -0.0002739429 0.02666378
v 0.2214508 -0.006746054 0.1112638
v 0.2293015 -0.0007560253 0.1138105
v 0.1867294 -0.007199287 0.1932073
v 0.1939392 -0.001217604 0.1972451
v 0.1392822 -0.007572889 0.2607231
v 0.1453552 -0.001600266 0.2663851
v 0.08041382 0.006336689 0.2986379
v 0.08459473 -0.007822037 0.3057461
v 0.08877563 -0.001857996 0.3129663
v 0.02615356 -0.007945538 0.3280897
v 0.0276413 -0.001987219 0.3363409
v -0.03292847 -0.007942915 0.3276343
v -0.0345993 -0.001984596 0.3358607
v -0.08998871 -0.007811308 0.303833
v -0.1356888 0.006603718 0.2503777
v -0.09449768 -0.001846552 0.3108778
v -0.1421509 -0.007544041 0.2555046
v -0.1486053 -0.001569033 0.2607431
v -0.1860199 -0.007133245 0.1812472
v -0.1934662 -0.001148939 0.1848097
v -0.2184296 -0.006644487 0.09290123
v -0.2380829 -0.006160259 0.005359173
v -0.2360535 0.008420467 -0.07802248
v -0.2442856 -0.005697727 -0.07821274
v -0.2142639 -0.004904032 -0.2217054
v -0.1772156 -0.004603148 -0.276082
v -0.1231232 0.009684563 -0.3065028
v -0.1258316 -0.004388809 -0.3148165
v -0.12854 0.001660585 -0.3230186
v -0.1832275 0.001432419 -0.2817869
v -0.2216873 0.00112009 -0.2253475
v -0.236496 -0.005273819 -0.1548643
v -0.2445679 0.0007395744 -0.1565619
v -0.2525253 0.0003066063 -0.07829142
v -0.2462158 -0.0001630783 0.00660181
v -0.2263184 -0.0006535053 0.09525585
v 0.03620911 0.001729488 -0.3352976
v 0.03518677 -0.004274368 -0.3353381
v 0.03518677 -0.03074551 -0.335485
v 0.03604126 0.00165081 -0.3212676
v -0.04608154 0.001734018 -0.3361588
v -0.04624939 0.001655579 -0.3221431
v -0.04524231 -0.03074098 -0.3363409
v -0.04524231 -0.0042696 -0.3361936
v -0.04541016 -0.03086495 -0.3141079
v 0.03501892 -0.03086948 -0.3132524

vt 0.09737821 0.7392422
vt 0.1025287 0.7532616
vt 0.1048481 0.7689931
vt 0.1042578 0.7856507
vt 0.1006795 0.8024483
vt 0.09403446 0.8185995
vt 0.08504889 0.8317229
vt 0.07454031 0.8406089
vt 0.0631461 0.8451319
vt 0.05150361 0.845166
vt 0.04025017 0.8405853
vt 0.03002313 0.8312638
vt 0.02145984 0.817076
vt 0.01491675 0.7998229
vt 0.01086854 0.7827748
vt 0.009436059 0.7664712
vt 0.01074015 0.7514513
vt 0.01490153 0.7382547
vt 0.02204106 0.7274204
vt 0.03227957 0.7194878
vt 0.07889817 0.7194849
vt 0.0894752 0.7277213
vt 0.2861227 0.7760802
vt 0.297136 0.7761654
vt 0.275443 0.7716193
vt 0.3185113 0.7633901
vt 0.3343438 0.7345284
vt 0.32763 0.7503951
vt 0.2571096 0.74813
vt 0.2508154 0.7309449
vt 0.2469939 0.7138996
vt 0.3387661 0.7013813
vt 0.2585641 0.6597647
vt 0.2472938 0.6828805
vt 0.2515445 0.6700817
vt 0.3144416 0.6529536
vt 0.3316442 0.6719893
vt 0.3365951 0.6857953
vt 0.09120948 0.7263676
vt 0.08027447 0.7177806
vt 0.06424004 0.7193514
vt 0.08007839 0.71952
vt 0.08913869 0.7287788
vt 0.09033837 0.727666
vt 0.04840167 0.7191827
vt 0.09816311 0.7392716
vt 0.0993509 0.7383047
vt 0.1032389 0.7534259
vt 0.1046288 0.7527791
vt 0.1054535 0.7693242
vt 0.1031079 0.7859267
vt 0.1069734 0.7689773
vt 0.1047163 0.7861398
vt 0.1063147 0.7860864
vt 0.1009556 0.8030441
vt 0.102583 0.8032933
vt 0.09411728 0.8192048
vt 0.09570826 0.8197849
vt 0.08477393 0.83252
vt 0.08621322 0.8334712
vt 0.07317983 0.839982
vt 0.07400333 0.8413994
vt 0.07511919 0.8427172
vt 0.06249474 0.845806
vt 0.06310439 0.8473914
vt 0.05085948 0.8457161
vt 0.05084705 0.8473623
vt 0.03962177 0.841022
vt 0.03062177 0.8304644
vt 0.03902541 0.8424984
vt 0.02935038 0.8314909
vt 0.02831768 0.8326684
vt 0.02070946 0.8168461
vt 0.01940207 0.8177406
vt 0.01432797 0.7994227
vt 0.01045738 0.782158
vt 0.01085775 0.7656983
vt 0.009235575 0.7656761
vt 0.01514843 0.7373769
vt 0.02244482 0.726653
vt 0.0330966 0.720638
vt 0.03256333 0.7190139
vt 0.03165431 0.7175229
vt 0.02092722 0.7257118
vt 0.01341359 0.7368827
vt 0.01077043 0.7505591
vt 0.008980749 0.7504722
vt 0.007495892 0.7659165
vt 0.008826303 0.7826517
vt 0.01283929 0.8001143
vt 0.1567684 0.9540845
vt 0.1564119 0.9566088
vt 0.1564132 0.9679099
vt 0.1701618 0.983782
vt 0.1701622 0.9679876
vt 0.1676199 0.9679857
vt 0.1223832 0.9678829

vn 0.7417299 0.5821517 -0.3330706
vn 0.3251879 0.9435833 -0.06247765
vn 0.8155283 0.578644 -0.009200001
vn 0.5675417 0.8175672 0.09736738
vn 0.7663248 0.5804874 0.2752828
vn 0.3626269 0.904761 0.223404
vn 0.5694916 0.5828698 0.5796052
vn 0.258292 0.8217409 0.5079637
vn 0.09310219 0.5960767 0.7975115
vn -0.08534922 0.9446671 0.3167326
vn -0.4750018 0.5909428 0.6520429
vn -0.3512239 0.8911406 0.2872459
vn -0.7237776 0.5800971 0.3736753
vn -0.4039871 0.9049071 0.1339312
vn -0.8015463 0.5803876 0.143784
vn -0.5747058 0.8182243 0.01491107
vn -0.8014822 0.5824356 -0.1356281
vn -0.3399925 0.9295384 -0.1427007
vn -0.617485 0.5886796 -0.5216978
vn -0.1745252 0.830315 -0.5292617
vn 0.2315602 0.5026823 -0.8328808
vn 0.4396382 0.8222164 -0.3614946
vn 0.09677298 -0.6971559 -0.7103581
vn -0.1179172 -0.8673883 -0.4834594
vn 0.158005 -0.9449975 -0.2863813
vn -0.28071 -0.928625 -0.2426056
vn -0.4780782 -0.8667474 -0.1420922
vn -0.6390473 -0.6950253 -0.329482
vn 0.4427144 -0.8662984 -0.2313675
vn 0.6844922 -0.6945162 -0.2216249
vn 0.3210277 -0.9451039 -0.06098988
vn -0.2614788 -0.9650918 0.01505287
vn 0.2786727 -0.9317655 0.2327114
vn 0.4892403 -0.8683395 0.08142664
vn 0.6556529 -0.6997827 0.2835904
vn -0.08226663 -0.877972 0.4715903
vn -0.4327253 -0.869588 0.2378352
vn -0.6901047 -0.6978566 0.1917073
vn 0.693059 -0.2933198 -0.6585079
vn 0.3419843 -0.4519247 -0.8238997
vn 0.465184 -0.4731726 0.7481387
vn -0.17461 -0.9749986 0.137438
vn -0.499045 -0.7016646 0.5085479
vn -0.1858644 -0.9783132 0.09142053
vn -0.7123324 -0.4660592 0.5247584
vn -0.2013972 -0.9784171 0.04625114
vn 0.8475925 -0.2950175 -0.4410802
vn -0.2066381 -0.9783916 0.00710666
vn 0.9251491 -0.2966436 -0.2368577
vn -0.2051103 -0.9783165 -0.0287484
vn -0.7139238 -0.695965 -0.07710716
vn 0.9532993 -0.2973393 -0.05300707
vn -0.1980805 -0.9781185 -0.06362682
vn 0.9475406 -0.2971909 0.117662
vn -0.1843552 -0.9778642 -0.09896786
vn 0.9118863 -0.2964822 0.2838338
vn -0.1593919 -0.9775722 -0.1376475
vn 0.8393287 -0.2966963 0.4555202
vn -0.1156955 -0.9770298 -0.1789617
vn 0.7079283 -0.2977955 0.6404337
vn -0.3925931 -0.6958936 -0.6013342
vn -0.05116405 -0.9765075 -0.2093213
vn 0.4917176 -0.2961584 0.8188431
vn 0.03027906 -0.9761075 -0.2151684
vn 0.1840056 -0.2937104 0.9380171
vn 0.1084087 -0.9761531 -0.188076
vn -0.1779079 -0.2926347 0.9395285
vn 0.1622251 -0.9766939 -0.140542
vn 0.5345733 -0.6958797 -0.4795653
vn -0.5071082 -0.2941125 0.8101475
vn 0.190427 -0.9774019 -0.09177708
vn -0.7742773 -0.1925355 0.6028471
vn 0.1983924 -0.9780961 -0.06299667
vn -0.8758119 -0.2957042 0.3814611
vn 0.2027529 -0.9783964 -0.04039515
vn 0.2058555 -0.9785396 -0.009149568
vn 0.7177581 -0.6961282 -0.01512238
vn 0.2036489 -0.9786106 0.02912824
vn 0.1593693 -0.9787217 0.1292482
vn 0.105358 -0.9786698 0.1763668
vn 0.2299102 -0.6807485 0.6955018
vn -0.04380108 -0.9893799 -0.1385962
vn -0.2950666 -0.3125463 -0.9029122
vn -0.6544158 -0.2926068 -0.6972239
vn -0.8358608 -0.293572 -0.4638448
vn 0.1906564 -0.9787021 0.07610804
vn -0.9261334 -0.2949362 -0.2351372
vn -0.9543298 -0.2958162 -0.04180049
vn -0.948203 -0.2956609 0.1161709
vn -0.9225882 -0.2950822 0.2485104
vn 0.3489184 0.6391219 -0.6854044
vn 0.8948486 -0.07068845 -0.4407371
vn 0.4164927 -0.4033041 -0.8147881
vn 0.5450088 -0.08640456 -0.8339662
vn -0.84574 0.3071302 -0.4363427
vn -0.2190676 0.2692801 -0.9378153
vn -0.663554 -0.6652297 -0.3422944
vn -0.4363149 -0.02576648 -0.899425
vn -0.4164926 -0.4123467 0.8102494
vn 0.6635605 -0.6689993 0.3348546

usemtl Toilet_Material
f 33/33/33 32/32/32 31/31/31
f 36/36/36 32/32/32 33/33/33
f 32/32/32 26/26/26 25/25/25
f 31/31/31 32/32/32 25/25/25
f 29/29/29 31/31/31 25/25/25
f 30/30/30 31/31/31 29/29/29
f 30/30/30 75/75/75 31/31/31
f 76/76/76 31/31/31 75/75/75
f 31/31/31 76/76/76 77/77/77
f 78/78/78 77/77/77 76/76/76
f 34/34/34 33/33/33 31/31/31
f 77/77/77 34/34/34 31/31/31
f 35/35/35 33/33/33 34/34/34
f 35/35/35 79/79/79 33/33/33
f 80/80/80 33/33/33 79/79/79
f 33/33/33 80/80/80 81/81/81
f 82/82/82 81/81/81 80/80/80
f 81/81/81 36/36/36 33/33/33
f 45/45/45 36/36/36 81/81/81
f 82/82/82 45/45/45 81/81/81
f 42/42/42 36/36/36 41/41/41
f 41/41/41 36/36/36 45/45/45
f 36/36/36 42/42/42 43/43/43
f 44/44/44 43/43/43 42/42/42
f 43/43/43 37/37/37 36/36/36
f 37/37/37 32/32/32 36/36/36
f 38/38/38 32/32/32 37/37/37
f 38/38/38 48/48/48 32/32/32
f 50/50/50 32/32/32 48/48/48
f 32/32/32 50/50/50 51/51/51
f 53/53/53 51/51/51 50/50/50
f 27/27/27 26/26/26 32/32/32
f 51/51/51 27/27/27 32/32/32
f 28/28/28 26/26/26 27/27/27
f 28/28/28 57/57/57 26/26/26
f 59/59/59 26/26/26 57/57/57
f 26/26/26 59/59/59 61/61/61
f 62/62/62 61/61/61 59/59/59
f 25/25/25 26/26/26 24/24/24
f 26/26/26 61/61/61 24/24/24
f 23/23/23 25/25/25 24/24/24
f 23/23/23 66/66/66 25/25/25
f 68/68/68 25/25/25 66/66/66
f 25/25/25 68/68/68 69/69/69
f 71/71/71 69/69/69 68/68/68
f 69/69/69 29/29/29 25/25/25
f 69/69/69 71/71/71 29/29/29
f 73/73/73 29/29/29 71/71/71
f 29/29/29 73/73/73 30/30/30
f 75/75/75 30/30/30 73/73/73
f 24/24/24 64/64/64 23/23/23
f 66/66/66 23/23/23 64/64/64
f 61/61/61 62/62/62 24/24/24
f 64/64/64 24/24/24 62/62/62
f 27/27/27 55/55/55 28/28/28
f 57/57/57 28/28/28 55/55/55
f 51/51/51 53/53/53 27/27/27
f 55/55/55 27/27/27 53/53/53
f 37/37/37 46/46/46 38/38/38
f 48/48/48 38/38/38 46/46/46
f 43/43/43 44/44/44 37/37/37
f 46/46/46 37/37/37 44/44/44
f 45/45/45 99/93/99 41/41/41
f 100/97/100 41/41/41 99/93/99
f 98/96/98 97/93/97 45/45/45
f 99/93/99 45/45/45 97/93/97
f 96/94/96 95/95/95 45/45/45
f 98/96/98 45/45/45 95/95/95
f 95/95/95 91/91/91 98/96/98
f 92/92/92 98/96/98 91/91/91
f 92/92/92 93/93/93 98/96/98
f 97/93/97 98/96/98 93/93/93
f 93/93/93 100/97/100 97/93/97
f 99/93/99 97/93/97 100/97/100
f 41/41/41 100/97/100 92/92/92
f 93/93/93 92/92/92 100/97/100
f 91/91/91 94/94/94 92/92/92
f 41/41/41 92/92/92 94/94/94
f 40/40/40 42/42/42 94/94/94
f 41/41/41 94/94/94 42/42/42
f 39/39/39 44/44/44 40/40/40
f 42/42/42 40/40/40 44/44/44
f 44/44/44 39/39/39 46/46/46
f 47/47/47 46/46/46 39/39/39
f 46/46/46 47/47/47 48/48/48
f 49/49/49 48/48/48 47/47/47
f 48/48/48 49/49/49 50/50/50
f 52/52/52 50/50/50 49/49/49
f 50/50/50 52/52/52 53/53/53
f 54/54/54 53/53/53 52/52/52
f 53/53/53 54/54/54 55/55/55
f 56/56/56 55/55/55 54/54/54
f 55/55/55 56/56/56 57/57/57
f 58/58/58 57/57/57 56/56/56
f 57/57/57 58/58/58 59/59/59
f 60/60/60 59/59/59 58/58/58
f 59/59/59 60/60/60 62/62/62
f 63/63/63 62/62/62 60/60/60
f 62/62/62 63/63/63 64/64/64
f 65/65/65 64/64/64 63/63/63
f 64/64/64 65/65/65 66/66/66
f 67/67/67 66/66/66 65/65/65
f 66/66/66 67/67/67 68/68/68
f 70/70/70 68/68/68 67/67/67
f 68/68/68 70/70/70 71/71/71
f 72/72/72 71/71/71 70/70/70
f 71/71/71 72/72/72 73/73/73
f 74/74/74 73/73/73 72/72/72
f 90/90/90 75/75/75 74/74/74
f 73/73/73 74/74/74 75/75/75
f 89/89/89 76/76/76 90/90/90
f 75/75/75 90/90/90 76/76/76
f 88/88/88 78/78/78 89/89/89
f 76/76/76 89/89/89 78/78/78
f 87/87/87 86/86/86 88/88/88
f 78/78/78 88/88/88 86/86/86
f 85/85/85 79/79/79 87/87/87
f 86/86/86 87/87/87 79/79/79
f 79/79/79 85/85/85 80/80/80
f 84/84/84 80/80/80 85/85/85
f 83/83/83 82/82/82 84/84/84
f 80/80/80 84/84/84 82/82/82
f 45/45/45 82/82/82 96/94/96
f 83/83/83 96/94/96 82/82/82
f 83/83/83 20/20/20 96/94/96
f 96/94/96 20/20/20 21/21/21
f 94/94/94 96/94/96 21/21/21
f 40/40/40 94/94/94 21/21/21
f 94/94/94 91/91/91 96/94/96
f 95/95/95 96/94/96 91/91/91
f 21/21/21 22/22/22 39/39/39
f 40/40/40 21/21/21 39/39/39
f 39/39/39 22/22/22 47/47/47
f 22/22/22 1/1/1 47/47/47
f 47/47/47 1/1/1 49/49/49
f 1/1/1 2/2/2 49/49/49
f 49/49/49 2/2/2 52/52/52
f 2/2/2 3/3/3 52/52/52
f 52/52/52 3/3/3 54/54/54
f 3/3/3 4/4/4 54/54/54
f 54/54/54 4/4/4 56/56/56
f 4/4/4 5/5/5 56/56/56
f 56/56/56 5/5/5 58/58/58
f 5/5/5 6/6/6 58/58/58
f 58/58/58 6/6/6 60/60/60
f 6/6/6 7/7/7 60/60/60
f 63/63/63 7/7/7 8/8/8
f 60/60/60 7/7/7 63/63/63
f 65/65/65 63/63/63 8/8/8
f 9/9/9 65/65/65 8/8/8
f 65/65/65 9/9/9 67/67/67
f 10/10/10 67/67/67 9/9/9
f 67/67/67 10/10/10 70/70/70
f 10/10/10 11/11/11 70/70/70
f 70/70/70 11/11/11 72/72/72
f 11/11/11 12/12/12 72/72/72
f 12/12/12 13/13/13 72/72/72
f 72/72/72 13/13/13 74/74/74
f 13/13/13 14/14/14 74/74/74
f 74/74/74 14/14/14 90/90/90
f 14/14/14 15/15/15 90/90/90
f 90/90/90 15/15/15 89/89/89
f 15/15/15 16/16/16 89/89/89
f 89/89/89 16/16/16 88/88/88
f 16/16/16 17/17/17 88/88/88
f 88/88/88 17/17/17 87/87/87
f 17/17/17 18/18/18 87/87/87
f 87/87/87 18/18/18 85/85/85
f 18/18/18 19/19/19 85/85/85
f 85/85/85 19/19/19 84/84/84
f 84/84/84 19/19/19 20/20/20
f 83/83/83 84/84/84 20/20/20
f 20/20/20 18/18/18 2/2/2
f 19/19/19 18/18/18 20/20/20
f 22/22/22 20/20/20 2/2/2
f 21/21/21 20/20/20 22/22/22
f 1/1/1 22/22/22 2/2/2
f 2/2/2 18/18/18 10/10/10
f 6/6/6 2/2/2 10/10/10
f 4/4/4 2/2/2 6/6/6
f 5/5/5 4/4/4 6/6/6
f 3/3/3 2/2/2 4/4/4
f 7/7/7 6/6/6 8/8/8
f 8/8/8 6/6/6 10/10/10
f 9/9/9 8/8/8 10/10/10
f 18/18/18 14/14/14 10/10/10
f 10/10/10 14/14/14 12/12/12
f 14/14/14 13/13/13 12/12/12
f 11/11/11 10/10/10 12/12/12
f 15/15/15 14/14/14 16/16/16
f 16/16/16 14/14/14 18/18/18
f 17/17/17 16/16/16 18/18/18
f 34/34/34 86/86/86 35/35/35
f 79/79/79 35/35/35 86/86/86
f 77/77/77 78/78/78 34/34/34
f 86/86/86 34/34/34 78/78/78

