# ProBuilder 4.5.2
# https://unity3d.com/unity/features/worldbuilding/probuilder
# 5/4/2022 1:47:00 p. m.

mtllib ./Wall_door__glass__Double.mtl
o Wall_door_ glass_ Double

g Wall_door_ glass_ Double
v -0.09999847 0 0
v -0.09999847 2.907128 0
v -0.07611084 2.907128 0
v -0.07611084 0 0
v -0.09999894 0 -0.8488766
v -0.09999894 2.907128 -0.8442599
v -0.09999847 0 -4.5
v -0.09999847 2.907128 -3.9375
v -0.09999867 0 -3.133173
v -0.09999867 2.25 -3.133173
v -0.09999866 2.907128 -3.151239
v -0.09999847 2.907128 -4.5
v -0.09999867 2.221388 -3.133173
v -0.09999894 2.25 -0.8488766
v -0.09999894 2.221388 -0.8488766
v -0.07611084 2.907128 -4.5
v -0.07611084 0 -4.5
v -0.07611103 0 -3.133173
v -0.07611106 0 -0.8488766
v -0.07611106 2.221388 -0.8488766
v -0.07611118 2.907128 -0.8442599
v -0.07611103 2.221388 -3.133173
v -0.07611115 2.907128 -3.151239
v -0.09999847 2.996917 -4.500001
v -0.07611083 2.996917 -4.500001
v -0.07611082 2.996917 -2.595323
v -0.07611074 2.996917 -1.342179
v -0.07611077 2.996917 -8.645651E-07
v -0.09999841 2.996917 -8.674127E-07
v -0.09999837 2.996917 -1.342179
v -0.09999846 2.996917 -2.595323
v -0.09999842 2.996917 -3.937501

vt -0.09999847 0
vt -0.09999847 2.907128
vt -0.07611084 2.907128
vt -0.07611084 0
vt -0.01296876 5.907043E-08
vt -0.8618454 5.907042E-08
vt -0.8572286 2.907128
vt -4.512969 5.907043E-08
vt -3.950469 2.907128
vt -3.146142 5.907043E-08
vt -3.146142 2.25
vt -3.164208 2.907128
vt -4.512969 2.907128
vt -3.146142 2.221388
vt -0.8618454 2.25
vt -0.01296876 2.907128
vt -0.8618454 2.221388
vt 0.07611084 2.907128
vt 0.09999847 2.907128
vt 0.09999847 0
vt 0.07611084 0
vt 3.120204 -0.9547594
vt 4.487031 -0.9547594
vt -0.01296875 -0.9547594
vt -0.01296875 1.952368
vt 0.8359078 -0.9547594
vt 0.8359078 1.266629
vt 0.8312911 1.952368
vt 3.120204 1.266629
vt 3.138271 1.952368
vt 4.487031 1.952368
vt 0.09999847 -4.500001
vt 0.07611083 -4.500001
vt 0.07611082 -2.595323
vt 0.07611074 -1.342179
vt 0.09999837 -1.342179
vt 0.09999846 -2.595323
vt 0.09999842 -3.937501
vt -0.09999894 -0.8488766
vt -0.07611106 -0.8488766
vt -0.07611103 -3.133173
vt -0.07611084 -4.5
vt -0.09999847 -4.5
vt -0.09999867 -3.133173
vt -0.09999867 2.221388
vt -0.09999867 2.25
vt -0.07611103 2.221388
vt 0.07611106 -0.8488766
vt 0.07611103 -3.133173
vt 0.09999867 -3.133173
vt 0.09999894 -0.8488766
vt 0.09999847 2.996989
vt 0.07611083 2.996989
vt -3.9375 2.907128
vt -4.5 2.907128
vt -3.937501 2.996917
vt -4.500001 2.996917
vt -3.151239 2.907127
vt -2.595323 2.996917
vt 4.5 2.907128
vt 3.151239 2.907128
vt 4.500001 2.996917
vt 2.595323 2.996917
vt -0.8442599 2.907127
vt -1.342179 2.996917
vt 0.8442599 2.907127
vt 1.342179 2.996917
vt 3.089699E-08 2.907127
vt 8.954621E-07 2.996917
vt -0.07611077 2.996917
vt -0.09999841 2.996917

vn 0 0 1
vn -1 -4.320941E-10 5.456612E-07
vn -0.5 -2.160471E-10 2.728306E-07
vn 0 0 0
vn 1 0 4.123997E-07
vn 0 0 -1
vn 0 1 0
vn 0 -1 0
vn 0 0 0.3333333
vn 0 0 -0.3333333

usemtl MB_Glass_mat
f 2/2/1 1/1/1 4/4/1 3/3/1
f 24/52/6 25/53/6 16/18/6 12/19/6
f 28/70/1 29/71/1 2/2/1 3/3/1

usemtl Dark
f 7/20/6 12/19/6 16/18/6 17/21/6

usemtl MB_Glass_mat
f 19/40/8 4/4/8 1/1/8
f 5/39/8 19/40/8 1/1/8
f 18/41/8 19/40/8 5/39/8
f 9/44/8 18/41/8 5/39/8
f 17/42/8 18/41/8 9/44/8
f 7/43/8 17/42/8 9/44/8
f 23/30/5 22/29/5 16/31/5
f 18/22/5 17/23/5 16/31/5
f 22/29/5 18/22/5 16/31/5
f 3/25/5 4/24/5 19/26/5
f 3/25/5 19/26/5 20/27/5
f 3/25/5 20/27/5 21/28/5
f 8/9/2 7/8/2 11/12/3
f 11/12/3 7/8/2 9/10/2
f 11/12/3 9/10/2 10/11/4
f 11/12/3 10/11/4 13/14/5
f 12/13/2 7/8/2 8/9/2
f 5/6/2 1/5/2 6/7/3
f 14/15/4 5/6/2 6/7/3
f 6/7/3 1/5/2 2/16/2
f 15/17/5 14/15/4 6/7/3
f 10/46/4 9/1/1 22/47/9
f 9/1/1 18/4/1 22/47/9
f 13/45/6 10/46/4 22/47/9
f 20/47/4 14/46/10 15/45/1
f 20/47/4 19/4/6 14/46/10
f 19/4/6 5/1/6 14/46/10
f 23/30/5 21/28/5 20/27/5
f 20/27/5 22/29/5 23/30/5
f 11/12/2 13/14/2 15/17/2
f 15/17/2 6/7/2 11/12/2
f 19/48/7 18/49/7 9/50/7
f 9/50/7 5/51/7 19/48/7
f 20/40/8 15/39/8 13/44/8
f 13/44/8 22/41/8 20/40/8

usemtl KB3D_NEC_MetalLightGreyWorn
f 32/38/7 25/33/7 24/32/7
f 31/37/7 25/33/7 32/38/7
f 31/37/7 26/34/7 25/33/7
f 30/36/7 26/34/7 31/37/7
f 30/36/7 27/35/7 26/34/7
f 30/36/7 28/21/7 27/35/7
f 29/20/7 28/21/7 30/36/7
f 24/57/2 12/55/2 8/54/2
f 8/54/2 32/56/2 24/57/2
f 32/56/2 8/54/2 11/58/2
f 11/58/2 31/59/2 32/56/2
f 26/63/5 23/61/5 16/60/5
f 16/60/5 25/62/5 26/63/5
f 31/59/2 11/58/2 6/64/2
f 6/64/2 30/65/2 31/59/2
f 27/67/5 21/66/5 23/61/5
f 23/61/5 26/63/5 27/67/5
f 28/69/5 3/68/5 21/66/5
f 21/66/5 27/67/5 28/69/5
f 30/65/2 6/64/2 2/68/2
f 2/68/2 29/69/2 30/65/2

