# ProBuilder 4.5.2
# https://unity3d.com/unity/features/worldbuilding/probuilder
# 1/2/2022 12:11:55 p. m.

mtllib ./Stairs_hole_base.mtl
o Stairs hole base

g Floor Base (61)
v 7.739851 5.951001 6
v 1.771193 5.951001 6
v 1.771193 6.051001 6
v 7.739851 6.051001 6
v 1.771193 5.951001 1.5
v 1.771193 6.051001 1.5
v 7.74 6.051001 1.5
v 7.739851 5.951001 1.5
v 7.739851 6.051001 1.5
v 4.614851 6.051001 4.875
v 7.739851 6.051001 4.875
v 4.614851 6.051001 3.75
v 4.614851 6.051001 2.625
v 7.739851 6.051001 2.625
v 7.739851 5.951001 2.625
v 4.614851 5.951001 3.75
v 4.614851 5.951001 2.625
v 4.614851 5.951001 4.875
v 7.739851 5.951001 4.875
v 10.74 5.951001 6
v 7.74 5.951001 6
v 10.74 6.051001 6
v 7.74 6.051001 6
v 7.74 5.951001 1.5
v 10.74 5.951001 1.5
v 10.74 6.051001 1.5

vt 1.5 0
vt -4.468658 0
vt -4.468658 0.0999999
vt 1.5 0.0999999
vt -4.5 0
vt -4.5 0.0999999
vt 0 0.0999999
vt 0 0
vt -1.500149 0.0999999
vt 4.468658 0.0999999
vt 4.468658 -2.662013E-13
vt -1.5 -2.662013E-13
vt -1.5 0.0999999
vt -2.984255 2.25
vt 3.265745 -2.384186E-07
vt 8.953062 2.25
vt -2.984255 -2.384186E-07
vt -2.984552 -6.749999
vt 3.265745 -2.25
vt 8.953062 -6.75
vt 3.265745 -4.5
vt -2.984255 -6.75
vt -2.984255 -4.5
vt 3.099801 0.2266023
vt 3.099801 -0.05464768
vt 1.607636 -0.05464768
vt 2.318551 0.5078523
vt 2.318551 0.2266023
vt 1.607636 1.070352
vt 2.318551 0.7891023
vt 3.099801 1.070352
vt 3.099801 0.7891023
vt 1.625 0
vt 1.625 0.0999999
vt -1.625 0.0999999
vt 1.5 0
vt 1.5 0.0999999
vt -1.5 0
vt 2.25 0.0999999
vt 1.125 0.0999999
vt 1.125 0
vt 2.25 0
vt 3.375 0
vt 3.375 0.0999999
vt -1.625 0
vt 4.5 0
vt 4.5 0.0999999
vt 3.375 0.0999999
vt 3.375 0
vt -3 0
vt -3 0.09999999
vt -8.984552 2.250001
vt -2.984552 2.250001
vt -8.984552 -6.749999
vt 3.849838 -0.05464768
vt 3.849838 1.070352

vn 0 0 1
vn -1 0 0
vn -0.000801258 1.192064E-06 -0.5000013
vn 3.994409E-08 2.384129E-06 -1
vn -0.001068344 1.589419E-06 -0.333335
vn -0.003205112 0 0.9999949
vn 0 1 0
vn 0 0.5 0
vn 0 -1 0
vn 0 0 0
vn 1 0 0

usemtl Lit
f 8/46/11 9/47/11 14/48/11 15/49/11
f 19/41/11 11/40/11 4/7/11 1/8/11

usemtl Dark
f 12/39/11 16/42/11 13/44/11
f 18/41/11 16/42/11 12/39/11
f 10/40/11 18/41/11 12/39/11
f 16/42/11 17/43/11 13/44/11
f 7/9/3 8/12/5 6/10/4
f 9/13/6 8/12/5 7/9/3
f 8/12/5 5/11/4 6/10/4
f 7/9/3 25/5/4 24/38/4
f 7/9/3 26/6/4 25/5/4
f 3/3/1 2/2/1 1/1/1
f 1/1/1 4/4/1 3/3/1
f 5/5/2 2/8/2 3/7/2
f 3/7/2 6/6/2 5/5/2
f 11/9/4 19/38/4 18/33/4
f 18/33/4 10/34/4 11/9/4
f 13/35/1 17/45/1 15/36/1
f 15/36/1 14/37/1 13/35/1
f 23/51/1 21/50/1 20/8/1
f 20/8/1 22/7/1 23/51/1
f 7/6/2 24/5/2 21/8/2
f 21/8/2 23/7/2 7/6/2
f 22/7/11 20/8/11 25/46/11
f 25/46/11 26/47/11 22/7/11

usemtl Interior_Floor_2
f 12/19/7 13/21/7 6/20/7
f 13/21/7 7/18/8 6/20/7
f 14/23/10 9/22/9 7/18/8
f 14/23/10 7/18/8 13/21/7
f 10/15/7 12/19/7 6/20/7
f 10/15/7 6/20/7 3/16/7
f 3/16/7 11/17/7 10/15/7
f 4/14/7 11/17/7 3/16/7
f 26/54/7 23/53/7 22/52/7
f 26/54/7 7/18/8 23/53/7

usemtl Wall_Plaster_white
f 5/26/9 17/28/9 16/27/9
f 2/29/9 5/26/9 18/30/9
f 5/26/9 16/27/9 18/30/9
f 2/29/9 18/30/9 1/31/9
f 18/30/9 19/32/9 1/31/9
f 5/26/9 8/25/9 17/28/9
f 17/28/9 8/25/9 15/24/9
f 20/56/9 24/25/9 25/55/9
f 20/56/9 21/31/9 24/25/9

